<?xml version="1.0" encoding="UTF-8"?><svg xmlns="http://www.w3.org/2000/svg" xmlns:xlink="http://www.w3.org/1999/xlink" height="436.0" preserveAspectRatio="xMidYMid meet" version="1.0" viewBox="0.0 0.0 472.4 436.0" width="472.4" zoomAndPan="magnify"><defs><clipPath id="a"><path d="M 0 5 L 466 5 L 466 435.988281 L 0 435.988281 Z M 0 5"/></clipPath><clipPath id="b"><path d="M 39 5 L 462 5 L 462 435.988281 L 39 435.988281 Z M 39 5"/></clipPath><clipPath id="c"><path d="M 34 6 L 466 6 L 466 435.988281 L 34 435.988281 Z M 34 6"/></clipPath><clipPath id="d"><path d="M 87 115 L 472.390625 115 L 472.390625 423 L 87 423 Z M 87 115"/></clipPath></defs><g><g clip-path="url(#a)" id="change1_1"><path d="M 411.898438 342.007812 L 394.5625 315.941406 L 387.871094 315.941406 C 381.085938 324.992188 373.925781 333.71875 366.457031 342.007812 Z M 70.328125 48.792969 C 70.328125 49.191406 70.363281 49.585938 70.417969 49.96875 C 74.722656 47.042969 79.183594 44.269531 83.777344 41.648438 C 82.398438 40.714844 80.738281 40.167969 78.949219 40.167969 C 74.195312 40.167969 70.328125 44.035156 70.328125 48.792969 Z M 465.792969 357.589844 L 445.691406 357.589844 L 454.792969 435.988281 L 440.191406 435.988281 L 431.085938 357.589844 L 379.605469 357.589844 L 370.503906 435.988281 L 355.898438 435.988281 L 365.003906 357.589844 L 351.527344 357.589844 C 312.589844 395.71875 267.011719 421.417969 222.335938 421.417969 C 202.367188 421.417969 182.585938 417.527344 163.53125 410.519531 L 166.492188 435.988281 L 151.886719 435.988281 L 148.1875 404.132812 C 127.589844 394.558594 108.074219 381.398438 90.367188 365.660156 L 82.199219 435.988281 L 67.597656 435.988281 L 76.699219 357.589844 L 57.703125 357.589844 L 57.703125 342.007812 L 66.804688 342.007812 C 26.371094 296.269531 0 236.839844 0 180.46875 C 0 127.898438 22.933594 87.171875 58.820312 58.519531 C 58.199219 57.238281 57.699219 55.90625 57.335938 54.527344 L 50.769531 53.082031 L 50.769531 44.503906 L 57.335938 43.058594 C 57.847656 41.128906 58.609375 39.285156 59.609375 37.5625 L 55.988281 31.898438 L 62.058594 25.832031 L 67.722656 29.453125 C 69.445312 28.449219 71.285156 27.6875 73.214844 27.179688 L 74.660156 20.609375 L 83.242188 20.609375 L 84.683594 27.179688 C 86.613281 27.6875 88.457031 28.449219 90.179688 29.453125 L 95.84375 25.832031 L 101.910156 31.898438 L 101.46875 32.589844 C 104.730469 31.097656 108.046875 29.671875 111.410156 28.3125 L 111.410156 20.609375 L 133.328125 20.609375 C 150.96875 15.28125 169.582031 11.625 188.664062 9.65625 C 188.644531 9.492188 188.613281 9.332031 188.613281 9.160156 C 188.613281 7.167969 190.238281 5.546875 192.230469 5.546875 C 194.167969 5.546875 195.738281 7.078125 195.828125 8.992188 C 204.597656 8.285156 213.445312 7.929688 222.335938 7.929688 C 336.515625 7.929688 456.609375 25.183594 456.609375 139.367188 C 456.609375 192.066406 431.023438 256.203125 392.246094 309.996094 L 422.550781 309.996094 L 443.839844 342.007812 L 465.792969 342.007812 Z M 53.253906 12.777344 C 55.246094 12.777344 56.867188 11.15625 56.867188 9.160156 C 56.867188 7.167969 55.246094 5.546875 53.253906 5.546875 C 51.257812 5.546875 49.636719 7.167969 49.636719 9.160156 C 49.636719 11.15625 51.257812 12.777344 53.253906 12.777344 Z M 330.769531 9.160156 C 330.769531 7.167969 332.394531 5.546875 334.386719 5.546875 C 336.382812 5.546875 338.003906 7.167969 338.003906 9.160156 C 338.003906 11.15625 336.382812 12.777344 334.386719 12.777344 C 332.394531 12.777344 330.769531 11.15625 330.769531 9.160156" fill="#f6836b"/></g><g clip-path="url(#b)" id="change2_1"><path d="M 324.480469 11.777344 C 325.925781 11.777344 327.097656 10.605469 327.097656 9.160156 C 327.097656 7.71875 325.925781 6.546875 324.480469 6.546875 C 323.035156 6.546875 321.863281 7.71875 321.863281 9.160156 C 321.863281 10.605469 323.035156 11.777344 324.480469 11.777344 Z M 383.664062 90.074219 L 395.84375 90.074219 L 395.84375 87.074219 L 383.664062 87.074219 Z M 378.9375 49.589844 L 362.339844 39.675781 L 362.339844 59.507812 Z M 420.410156 76.972656 L 320.867188 76.972656 L 320.867188 24.976562 L 420.410156 24.976562 Z M 401.144531 83.738281 L 392.664062 83.738281 L 392.664062 86.738281 L 401.144531 86.738281 Z M 383.664062 83.738281 L 383.664062 86.738281 L 392.144531 86.738281 L 392.144531 83.738281 Z M 401.144531 80.40625 L 383.664062 80.40625 L 383.664062 83.40625 L 401.144531 83.40625 Z M 121.234375 90.242188 L 111.058594 90.242188 L 111.058594 91.242188 L 121.234375 91.242188 Z M 126.535156 87.90625 L 126.535156 86.90625 L 120.058594 86.90625 L 120.058594 87.90625 Z M 117.535156 86.90625 L 111.058594 86.90625 L 111.058594 87.90625 L 117.535156 87.90625 Z M 126.535156 83.574219 L 111.058594 83.574219 L 111.058594 84.574219 L 126.535156 84.574219 Z M 57.386719 90.242188 L 47.210938 90.242188 L 47.210938 91.242188 L 57.386719 91.242188 Z M 62.6875 87.90625 L 62.6875 86.90625 L 56.210938 86.90625 L 56.210938 87.90625 Z M 53.6875 86.90625 L 47.210938 86.90625 L 47.210938 87.90625 L 53.6875 87.90625 Z M 62.6875 83.574219 L 47.210938 83.574219 L 47.210938 84.574219 L 62.6875 84.574219 Z M 130.210938 59.191406 L 112.410156 59.191406 L 112.410156 65.421875 L 130.210938 65.421875 Z M 130.210938 32.011719 L 112.410156 32.011719 L 112.410156 38.238281 L 130.210938 38.238281 Z M 43.347656 11.777344 C 44.789062 11.777344 45.960938 10.605469 45.960938 9.160156 C 45.960938 7.71875 44.789062 6.546875 43.347656 6.546875 C 41.902344 6.546875 40.730469 7.71875 40.730469 9.160156 C 40.730469 10.605469 41.902344 11.777344 43.347656 11.777344 Z M 64.058594 48.792969 C 64.058594 57.003906 70.738281 63.683594 78.949219 63.683594 C 87.164062 63.683594 93.84375 57.003906 93.84375 48.792969 C 93.84375 40.582031 87.164062 33.898438 78.949219 33.898438 C 70.738281 33.898438 64.058594 40.582031 64.058594 48.792969 Z M 63.058594 48.792969 C 63.058594 40.027344 70.1875 32.898438 78.949219 32.898438 C 87.714844 32.898438 94.84375 40.027344 94.84375 48.792969 C 94.84375 57.554688 87.714844 64.683594 78.949219 64.683594 C 70.1875 64.683594 63.058594 57.554688 63.058594 48.792969 Z M 252.808594 138.507812 C 251.992188 138.507812 251.246094 139.171875 251.144531 139.988281 C 251.039062 140.804688 251.621094 141.464844 252.4375 141.464844 C 253.253906 141.464844 254 140.804688 254.101562 139.988281 C 254.203125 139.171875 253.625 138.507812 252.808594 138.507812 Z M 295.257812 138.984375 L 280.367188 138.984375 C 279.816406 138.984375 279.367188 139.433594 279.367188 139.984375 C 279.367188 140.539062 279.816406 140.984375 280.367188 140.984375 L 295.257812 140.984375 C 295.808594 140.984375 296.257812 140.539062 296.257812 139.984375 C 296.257812 139.433594 295.808594 138.984375 295.257812 138.984375 Z M 182.324219 12.777344 C 184.316406 12.777344 185.941406 11.15625 185.941406 9.160156 C 185.941406 7.167969 184.316406 5.546875 182.324219 5.546875 C 180.332031 5.546875 178.710938 7.167969 178.710938 9.160156 C 178.710938 11.15625 180.332031 12.777344 182.324219 12.777344 Z M 209.292969 80.042969 C 209.292969 81.621094 210.578125 82.90625 212.15625 82.90625 L 233.8125 82.90625 C 235.390625 82.90625 236.675781 81.621094 236.675781 80.042969 C 236.675781 78.464844 235.390625 77.183594 233.8125 77.183594 L 212.15625 77.183594 C 210.578125 77.183594 209.292969 78.464844 209.292969 80.042969 Z M 189.488281 65.503906 L 211.148438 65.503906 C 212.726562 65.503906 214.011719 64.222656 214.011719 62.640625 C 214.011719 61.0625 212.726562 59.78125 211.148438 59.78125 L 189.488281 59.78125 C 187.910156 59.78125 186.625 61.0625 186.625 62.640625 C 186.625 64.222656 187.910156 65.503906 189.488281 65.503906 Z M 189.488281 48.101562 L 227.015625 48.101562 C 228.59375 48.101562 229.875 46.816406 229.875 45.238281 C 229.875 43.660156 228.59375 42.378906 227.015625 42.378906 L 189.488281 42.378906 C 187.910156 42.378906 186.625 43.660156 186.625 45.238281 C 186.625 46.816406 187.910156 48.101562 189.488281 48.101562 Z M 234.25 65.503906 L 241.910156 65.503906 C 243.488281 65.503906 244.769531 64.222656 244.769531 62.640625 C 244.769531 61.0625 243.488281 59.78125 241.910156 59.78125 L 234.25 59.78125 C 232.671875 59.78125 231.386719 61.0625 231.386719 62.640625 C 231.386719 64.222656 232.671875 65.503906 234.25 65.503906 Z M 226.441406 65.503906 C 228.019531 65.503906 229.304688 64.222656 229.304688 62.640625 C 229.304688 61.0625 228.019531 59.78125 226.441406 59.78125 L 218.785156 59.78125 C 217.207031 59.78125 215.921875 61.0625 215.921875 62.640625 C 215.921875 64.222656 217.207031 65.503906 218.785156 65.503906 Z M 189.488281 39.402344 L 197.148438 39.402344 C 198.726562 39.402344 200.011719 38.117188 200.011719 36.539062 C 200.011719 34.960938 198.726562 33.675781 197.148438 33.675781 L 189.488281 33.675781 C 187.910156 33.675781 186.625 34.960938 186.625 36.539062 C 186.625 38.117188 187.910156 39.402344 189.488281 39.402344 Z M 189.488281 30.699219 L 215.28125 30.699219 C 216.859375 30.699219 218.144531 29.417969 218.144531 27.839844 C 218.144531 26.261719 216.859375 24.976562 215.28125 24.976562 L 189.488281 24.976562 C 187.910156 24.976562 186.625 26.261719 186.625 27.839844 C 186.625 29.417969 187.910156 30.699219 189.488281 30.699219 Z M 245.191406 408.847656 L 63.179688 408.847656 C 55.683594 408.847656 49.605469 414.921875 49.605469 422.417969 C 49.605469 429.914062 55.683594 435.988281 63.179688 435.988281 L 245.191406 435.988281 C 252.6875 435.988281 258.761719 429.914062 258.761719 422.417969 C 258.761719 414.921875 252.6875 408.847656 245.191406 408.847656 Z M 455.179688 125.324219 C 455.179688 124.773438 454.730469 124.324219 454.179688 124.324219 L 405.011719 124.324219 C 404.457031 124.324219 404.011719 124.773438 404.011719 125.324219 C 404.011719 125.878906 404.457031 126.324219 405.011719 126.324219 L 454.179688 126.324219 C 454.730469 126.324219 455.179688 125.878906 455.179688 125.324219 Z M 432.078125 140.984375 L 440.507812 140.984375 C 441.058594 140.984375 441.507812 140.539062 441.507812 139.984375 C 441.507812 139.433594 441.058594 138.984375 440.507812 138.984375 L 432.078125 138.984375 C 431.527344 138.984375 431.078125 139.433594 431.078125 139.984375 C 431.078125 140.539062 431.527344 140.984375 432.078125 140.984375 Z M 451.902344 146.519531 C 451.902344 145.96875 451.453125 145.519531 450.902344 145.519531 L 431.257812 145.519531 C 430.707031 145.519531 430.257812 145.96875 430.257812 146.519531 C 430.257812 147.070312 430.707031 147.519531 431.257812 147.519531 L 450.902344 147.519531 C 451.453125 147.519531 451.902344 147.070312 451.902344 146.519531 Z M 430.4375 154.054688 L 440.523438 154.054688 C 441.078125 154.054688 441.523438 153.605469 441.523438 153.054688 C 441.523438 152.5 441.078125 152.054688 440.523438 152.054688 L 430.4375 152.054688 C 429.886719 152.054688 429.4375 152.5 429.4375 153.054688 C 429.4375 153.605469 429.886719 154.054688 430.4375 154.054688 Z M 424.527344 195.742188 C 423.972656 195.742188 423.527344 196.1875 423.527344 196.742188 C 423.527344 197.292969 423.972656 197.742188 424.527344 197.742188 L 432.953125 197.742188 C 433.503906 197.742188 433.953125 197.292969 433.953125 196.742188 C 433.953125 196.1875 433.503906 195.742188 432.953125 195.742188 Z M 444.347656 203.273438 C 444.347656 202.722656 443.898438 202.273438 443.347656 202.273438 L 423.703125 202.273438 C 423.152344 202.273438 422.703125 202.722656 422.703125 203.273438 C 422.703125 203.828125 423.152344 204.273438 423.703125 204.273438 L 443.347656 204.273438 C 443.898438 204.273438 444.347656 203.828125 444.347656 203.273438 Z M 433.96875 209.808594 C 433.96875 209.253906 433.523438 208.808594 432.96875 208.808594 L 422.882812 208.808594 C 422.332031 208.808594 421.882812 209.253906 421.882812 209.808594 C 421.882812 210.359375 422.332031 210.808594 422.882812 210.808594 L 432.96875 210.808594 C 433.523438 210.808594 433.96875 210.359375 433.96875 209.808594 Z M 412.445312 147.273438 C 412.445312 146.722656 412 146.273438 411.445312 146.273438 L 394.597656 146.273438 C 394.042969 146.273438 393.597656 146.722656 393.597656 147.273438 C 393.597656 147.828125 394.042969 148.273438 394.597656 148.273438 L 411.445312 148.273438 C 412 148.273438 412.445312 147.828125 412.445312 147.273438 Z M 404.007812 160.34375 C 404.007812 159.789062 403.5625 159.34375 403.007812 159.34375 L 388.285156 159.34375 C 387.734375 159.34375 387.285156 159.789062 387.285156 160.34375 C 387.285156 160.894531 387.734375 161.34375 388.285156 161.34375 L 403.007812 161.34375 C 403.5625 161.34375 404.007812 160.894531 404.007812 160.34375 Z M 400.488281 242.414062 C 400.488281 241.863281 400.042969 241.414062 399.488281 241.414062 L 372.980469 241.414062 C 372.429688 241.414062 371.980469 241.863281 371.980469 242.414062 C 371.980469 242.964844 372.429688 243.414062 372.980469 243.414062 L 399.488281 243.414062 C 400.042969 243.414062 400.488281 242.964844 400.488281 242.414062 Z M 325.285156 132.699219 L 252.171875 132.699219 C 249.410156 132.699219 246.890625 134.9375 246.542969 137.699219 L 245.339844 147.273438 L 328.453125 147.273438 L 329.65625 137.699219 C 330.003906 134.9375 328.046875 132.699219 325.285156 132.699219 Z M 316.90625 207.875 C 316.90625 207.320312 316.457031 206.875 315.90625 206.875 L 306.984375 206.875 C 306.433594 206.875 305.984375 207.320312 305.984375 207.875 C 305.984375 208.425781 306.433594 208.875 306.984375 208.875 L 315.90625 208.875 C 316.457031 208.875 316.90625 208.425781 316.90625 207.875 Z M 295.386719 212.675781 C 295.386719 212.121094 294.9375 211.675781 294.386719 211.675781 L 286.03125 211.675781 C 285.480469 211.675781 285.03125 212.121094 285.03125 212.675781 C 285.03125 213.226562 285.480469 213.675781 286.03125 213.675781 L 294.386719 213.675781 C 294.9375 213.675781 295.386719 213.226562 295.386719 212.675781 Z M 278.09375 207.875 C 278.09375 207.320312 277.644531 206.875 277.09375 206.875 L 268.171875 206.875 C 267.617188 206.875 267.171875 207.320312 267.171875 207.875 C 267.171875 208.425781 267.617188 208.875 268.171875 208.875 L 277.09375 208.875 C 277.644531 208.875 278.09375 208.425781 278.09375 207.875 Z M 253.796875 246.519531 L 246.179688 246.519531 C 245.128906 246.519531 244.171875 247.371094 244.039062 248.421875 C 243.910156 249.46875 244.652344 250.320312 245.703125 250.320312 L 253.320312 250.320312 C 254.367188 250.320312 255.328125 249.46875 255.460938 248.421875 C 255.589844 247.371094 254.847656 246.519531 253.796875 246.519531 Z M 245.976562 233.5 C 246.792969 233.5 247.535156 232.835938 247.640625 232.019531 C 247.742188 231.203125 247.164062 230.539062 246.347656 230.539062 C 245.53125 230.539062 244.785156 231.203125 244.683594 232.019531 C 244.578125 232.835938 245.160156 233.5 245.976562 233.5 Z M 245.101562 212.675781 C 245.101562 213.226562 245.546875 213.675781 246.101562 213.675781 L 252.238281 213.675781 C 252.789062 213.675781 253.238281 213.226562 253.238281 212.675781 C 253.238281 212.121094 252.789062 211.675781 252.238281 211.675781 L 246.101562 211.675781 C 245.546875 211.675781 245.101562 212.121094 245.101562 212.675781 Z M 284.363281 160.34375 C 284.363281 159.789062 283.917969 159.34375 283.363281 159.34375 L 264.476562 159.34375 C 263.925781 159.34375 263.476562 159.789062 263.476562 160.34375 C 263.476562 160.894531 263.925781 161.34375 264.476562 161.34375 L 283.363281 161.34375 C 283.917969 161.34375 284.363281 160.894531 284.363281 160.34375 Z M 348.351562 268.546875 C 348.351562 269.101562 348.796875 269.546875 349.351562 269.546875 L 387.589844 269.546875 C 388.144531 269.546875 388.589844 269.101562 388.589844 268.546875 C 388.589844 267.996094 388.144531 267.546875 387.589844 267.546875 L 349.351562 267.546875 C 348.796875 267.546875 348.351562 267.996094 348.351562 268.546875 Z M 357.023438 199.542969 C 357.023438 200.09375 357.472656 200.542969 358.023438 200.542969 L 368.109375 200.542969 C 368.660156 200.542969 369.109375 200.09375 369.109375 199.542969 C 369.109375 198.988281 368.660156 198.542969 368.109375 198.542969 L 358.023438 198.542969 C 357.472656 198.542969 357.023438 198.988281 357.023438 199.542969 Z M 360.308594 173.410156 C 360.308594 173.960938 360.757812 174.410156 361.308594 174.410156 L 373.460938 174.410156 C 374.015625 174.410156 374.460938 173.960938 374.460938 173.410156 C 374.460938 172.855469 374.015625 172.410156 373.460938 172.410156 L 361.308594 172.410156 C 360.757812 172.410156 360.308594 172.855469 360.308594 173.410156 Z M 362.769531 153.808594 C 362.769531 154.359375 363.21875 154.808594 363.769531 154.808594 L 372.195312 154.808594 C 372.75 154.808594 373.195312 154.359375 373.195312 153.808594 C 373.195312 153.257812 372.75 152.808594 372.195312 152.808594 L 363.769531 152.808594 C 363.21875 152.808594 362.769531 153.257812 362.769531 153.808594 Z M 396.253906 173.410156 C 396.253906 172.855469 395.804688 172.410156 395.253906 172.410156 L 377.832031 172.410156 C 377.28125 172.410156 376.832031 172.855469 376.832031 173.410156 C 376.832031 173.960938 377.28125 174.410156 377.832031 174.410156 L 395.253906 174.410156 C 395.804688 174.410156 396.253906 173.960938 396.253906 173.410156 Z M 398.902344 194.007812 C 399.457031 194.007812 399.902344 193.5625 399.902344 193.007812 C 399.902344 192.457031 399.457031 192.007812 398.902344 192.007812 L 384.179688 192.007812 C 383.628906 192.007812 383.179688 192.457031 383.179688 193.007812 C 383.179688 193.5625 383.628906 194.007812 384.179688 194.007812 Z M 461.558594 128.660156 L 446.070312 268.367188 C 445.613281 272.492188 442.132812 275.605469 437.980469 275.605469 L 221.085938 275.605469 C 218.738281 275.605469 216.585938 274.644531 215.023438 272.898438 C 214.710938 272.550781 214.445312 272.179688 214.203125 271.796875 C 211.949219 287.800781 201.15625 305.859375 201.15625 319.941406 C 201.15625 335.40625 212.945312 357.589844 212.945312 357.589844 C 212.945312 357.589844 208.761719 392.21875 166.292969 392.21875 C 150.941406 392.21875 140.105469 389.527344 134.53125 387.707031 C 131.636719 386.761719 129.503906 384.328125 128.851562 381.355469 C 123.914062 358.945312 127.261719 327.128906 130.742188 315.941406 C 133.097656 308.378906 130.328125 269.644531 121.246094 242.03125 C 116.609375 227.945312 127.101562 213.449219 141.929688 213.449219 L 145.441406 202.273438 C 145.441406 202.273438 156.609375 196.875 168.410156 199.273438 C 180.210938 201.675781 185.847656 204.917969 190.246094 205.535156 L 187.394531 213.511719 C 192.261719 213.9375 196.613281 216.835938 198.839844 221.253906 C 203.640625 230.792969 211.277344 247.179688 213.78125 259.492188 L 228.484375 126.867188 C 228.941406 122.738281 232.417969 119.625 236.574219 119.625 L 453.46875 119.625 C 455.8125 119.625 457.96875 120.589844 459.53125 122.335938 C 461.097656 124.082031 461.816406 126.328125 461.558594 128.660156 Z M 258.40625 138.507812 C 257.59375 138.507812 256.847656 139.171875 256.742188 139.988281 C 256.640625 140.804688 257.21875 141.464844 258.035156 141.464844 C 258.851562 141.464844 259.597656 140.804688 259.699219 139.988281 C 259.804688 139.171875 259.226562 138.507812 258.40625 138.507812 Z M 264.007812 138.507812 C 263.191406 138.507812 262.445312 139.171875 262.34375 139.988281 C 262.242188 140.804688 262.820312 141.464844 263.636719 141.464844 C 264.453125 141.464844 265.199219 140.804688 265.300781 139.988281 C 265.402344 139.171875 264.824219 138.507812 264.007812 138.507812 Z M 110.742188 133.941406 L 98.835938 133.941406 L 98.835938 159.90625 L 110.742188 159.90625 Z M 68.96875 159.90625 L 80.875 159.90625 L 80.875 137.539062 L 68.96875 137.539062 Z M 51.007812 159.90625 L 39.101562 159.90625 L 39.101562 145.339844 L 51.007812 145.339844 L 51.007812 159.90625" fill="#5ec9cc"/></g><g id="change3_1"><path d="M 78.949219 58.417969 C 84.265625 58.417969 88.574219 54.109375 88.574219 48.792969 C 88.574219 43.476562 84.265625 39.167969 78.949219 39.167969 C 73.636719 39.167969 69.328125 43.476562 69.328125 48.792969 C 69.328125 54.109375 73.636719 58.417969 78.949219 58.417969 Z M 50.636719 9.160156 C 50.636719 10.605469 51.808594 11.777344 53.253906 11.777344 C 54.699219 11.777344 55.867188 10.605469 55.867188 9.160156 C 55.867188 7.71875 54.699219 6.546875 53.253906 6.546875 C 51.808594 6.546875 50.636719 7.71875 50.636719 9.160156 Z M 57.265625 32.039062 L 60.789062 37.546875 C 59.585938 39.480469 58.691406 41.621094 58.15625 43.902344 L 51.769531 45.304688 L 51.769531 52.277344 L 58.15625 53.683594 C 58.691406 55.964844 59.585938 58.105469 60.789062 60.039062 L 57.265625 65.546875 L 62.195312 70.476562 L 67.707031 66.957031 C 69.640625 68.15625 71.777344 69.050781 74.058594 69.585938 L 75.464844 75.972656 L 82.4375 75.972656 L 83.84375 69.585938 C 86.121094 69.050781 88.261719 68.15625 90.195312 66.957031 L 95.707031 70.476562 L 100.636719 65.546875 L 97.113281 60.039062 C 98.3125 58.105469 99.210938 55.964844 99.746094 53.683594 L 106.132812 52.277344 L 106.132812 45.304688 L 99.746094 43.902344 C 99.210938 41.621094 98.3125 39.480469 97.113281 37.546875 L 100.636719 32.039062 L 95.707031 27.105469 L 90.195312 30.628906 C 88.261719 29.429688 86.121094 28.53125 83.84375 28 L 82.4375 21.609375 L 75.464844 21.609375 L 74.058594 28 C 71.777344 28.53125 69.640625 29.429688 67.707031 30.628906 L 62.195312 27.105469 Z M 112.410156 55.019531 L 139.609375 55.019531 L 139.609375 48.792969 L 112.410156 48.792969 Z M 112.410156 27.839844 L 139.609375 27.839844 L 139.609375 21.609375 L 112.410156 21.609375 Z M 83.96875 83.574219 L 68.492188 83.574219 L 68.492188 84.574219 L 83.96875 84.574219 Z M 83.96875 86.90625 L 77.492188 86.90625 L 77.492188 87.90625 L 83.96875 87.90625 Z M 74.96875 87.90625 L 74.96875 86.90625 L 68.492188 86.90625 L 68.492188 87.90625 Z M 78.671875 90.242188 L 68.492188 90.242188 L 68.492188 91.242188 L 78.671875 91.242188 Z M 151.585938 77.683594 L 169.675781 77.683594 L 169.675781 50.089844 L 151.585938 50.089844 Z M 151.585938 49.089844 L 169.675781 49.089844 L 169.675781 21.5 L 151.585938 21.5 Z M 179.710938 80.042969 C 179.710938 81.074219 180.542969 81.90625 181.570312 81.90625 L 181.746094 81.90625 C 182.777344 81.90625 183.609375 81.074219 183.609375 80.042969 C 183.609375 79.015625 182.777344 78.183594 181.746094 78.183594 L 181.570312 78.183594 C 180.542969 78.183594 179.710938 79.015625 179.710938 80.042969 Z M 179.710938 71.34375 C 179.710938 72.371094 180.542969 73.207031 181.570312 73.207031 L 181.746094 73.207031 C 182.777344 73.207031 183.609375 72.371094 183.609375 71.34375 C 183.609375 70.316406 182.777344 69.480469 181.746094 69.480469 L 181.570312 69.480469 C 180.542969 69.480469 179.710938 70.316406 179.710938 71.34375 Z M 179.710938 62.644531 C 179.710938 63.671875 180.542969 64.503906 181.570312 64.503906 L 181.746094 64.503906 C 182.777344 64.503906 183.609375 63.671875 183.609375 62.644531 C 183.609375 61.613281 182.777344 60.78125 181.746094 60.78125 L 181.570312 60.78125 C 180.542969 60.78125 179.710938 61.613281 179.710938 62.644531 Z M 179.710938 53.941406 C 179.710938 54.96875 180.542969 55.804688 181.570312 55.804688 L 181.746094 55.804688 C 182.777344 55.804688 183.609375 54.96875 183.609375 53.941406 C 183.609375 52.914062 182.777344 52.078125 181.746094 52.078125 L 181.570312 52.078125 C 180.542969 52.078125 179.710938 52.914062 179.710938 53.941406 Z M 179.710938 45.238281 C 179.710938 46.269531 180.542969 47.101562 181.570312 47.101562 L 181.746094 47.101562 C 182.777344 47.101562 183.609375 46.269531 183.609375 45.238281 C 183.609375 44.210938 182.777344 43.378906 181.746094 43.378906 L 181.570312 43.378906 C 180.542969 43.378906 179.710938 44.210938 179.710938 45.238281 Z M 179.710938 36.539062 C 179.710938 37.566406 180.542969 38.402344 181.570312 38.402344 L 181.746094 38.402344 C 182.777344 38.402344 183.609375 37.566406 183.609375 36.539062 C 183.609375 35.511719 182.777344 34.675781 181.746094 34.675781 L 181.570312 34.675781 C 180.542969 34.675781 179.710938 35.511719 179.710938 36.539062 Z M 179.710938 27.839844 C 179.710938 28.867188 180.542969 29.699219 181.570312 29.699219 L 181.746094 29.699219 C 182.777344 29.699219 183.609375 28.867188 183.609375 27.839844 C 183.609375 26.808594 182.777344 25.976562 181.746094 25.976562 L 181.570312 25.976562 C 180.542969 25.976562 179.710938 26.808594 179.710938 27.839844 Z M 179.710938 19.136719 C 179.710938 20.164062 180.542969 21 181.570312 21 L 181.746094 21 C 182.777344 21 183.609375 20.164062 183.609375 19.136719 C 183.609375 18.109375 182.777344 17.273438 181.746094 17.273438 L 181.570312 17.273438 C 180.542969 17.273438 179.710938 18.109375 179.710938 19.136719 Z M 179.710938 9.160156 C 179.710938 10.605469 180.878906 11.777344 182.324219 11.777344 C 183.769531 11.777344 184.941406 10.605469 184.941406 9.160156 C 184.941406 7.71875 183.769531 6.546875 182.324219 6.546875 C 180.878906 6.546875 179.710938 7.71875 179.710938 9.160156 Z M 187.625 80.042969 C 187.625 81.074219 188.460938 81.90625 189.488281 81.90625 L 205.28125 81.90625 C 206.308594 81.90625 207.144531 81.074219 207.144531 80.042969 C 207.144531 79.015625 206.308594 78.183594 205.28125 78.183594 L 189.488281 78.183594 C 188.460938 78.183594 187.625 79.015625 187.625 80.042969 Z M 187.625 71.34375 C 187.625 72.371094 188.460938 73.207031 189.488281 73.207031 L 223.28125 73.207031 C 224.308594 73.207031 225.144531 72.371094 225.144531 71.34375 C 225.144531 70.316406 224.308594 69.480469 223.28125 69.480469 L 189.488281 69.480469 C 188.460938 69.480469 187.625 70.316406 187.625 71.34375 Z M 187.625 62.644531 C 187.625 63.671875 188.460938 64.503906 189.488281 64.503906 L 211.148438 64.503906 C 212.175781 64.503906 213.011719 63.671875 213.011719 62.644531 C 213.011719 61.613281 212.175781 60.78125 211.148438 60.78125 L 189.488281 60.78125 C 188.460938 60.78125 187.625 61.613281 187.625 62.644531 Z M 187.625 53.941406 C 187.625 54.96875 188.460938 55.804688 189.488281 55.804688 L 218.082031 55.804688 C 219.109375 55.804688 219.941406 54.96875 219.941406 53.941406 C 219.941406 52.914062 219.109375 52.078125 218.082031 52.078125 L 189.488281 52.078125 C 188.460938 52.078125 187.625 52.914062 187.625 53.941406 Z M 187.625 45.238281 C 187.625 46.269531 188.460938 47.101562 189.488281 47.101562 L 227.015625 47.101562 C 228.042969 47.101562 228.875 46.269531 228.875 45.238281 C 228.875 44.210938 228.042969 43.378906 227.015625 43.378906 L 189.488281 43.378906 C 188.460938 43.378906 187.625 44.210938 187.625 45.238281 Z M 187.625 36.539062 C 187.625 37.566406 188.460938 38.402344 189.488281 38.402344 L 197.148438 38.402344 C 198.175781 38.402344 199.011719 37.566406 199.011719 36.539062 C 199.011719 35.511719 198.175781 34.675781 197.148438 34.675781 L 189.488281 34.675781 C 188.460938 34.675781 187.625 35.511719 187.625 36.539062 Z M 187.625 27.839844 C 187.625 28.867188 188.460938 29.699219 189.488281 29.699219 L 215.28125 29.699219 C 216.308594 29.699219 217.144531 28.867188 217.144531 27.839844 C 217.144531 26.808594 216.308594 25.976562 215.28125 25.976562 L 189.488281 25.976562 C 188.460938 25.976562 187.625 26.808594 187.625 27.839844 Z M 187.625 19.136719 C 187.625 20.164062 188.460938 21 189.488281 21 L 201.332031 21 C 202.359375 21 203.191406 20.164062 203.191406 19.136719 C 203.191406 18.109375 202.359375 17.273438 201.332031 17.273438 L 189.488281 17.273438 C 188.460938 17.273438 187.625 18.109375 187.625 19.136719 Z M 189.613281 9.160156 C 189.613281 10.605469 190.785156 11.777344 192.230469 11.777344 C 193.675781 11.777344 194.847656 10.605469 194.847656 9.160156 C 194.847656 7.71875 193.675781 6.546875 192.230469 6.546875 C 190.785156 6.546875 189.613281 7.71875 189.613281 9.160156 Z M 243.90625 34.675781 L 206.378906 34.675781 C 205.351562 34.675781 204.519531 35.511719 204.519531 36.539062 C 204.519531 37.566406 205.351562 38.402344 206.378906 38.402344 L 243.90625 38.402344 C 244.933594 38.402344 245.769531 37.566406 245.769531 36.539062 C 245.769531 35.511719 244.933594 34.675781 243.90625 34.675781 Z M 244.703125 45.238281 C 244.703125 44.210938 243.871094 43.378906 242.84375 43.378906 L 235.183594 43.378906 C 234.15625 43.378906 233.320312 44.210938 233.320312 45.238281 C 233.320312 46.269531 234.15625 47.101562 235.183594 47.101562 L 242.84375 47.101562 C 243.871094 47.101562 244.703125 46.269531 244.703125 45.238281 Z M 243.769531 62.644531 C 243.769531 61.613281 242.9375 60.78125 241.910156 60.78125 L 234.25 60.78125 C 233.222656 60.78125 232.386719 61.613281 232.386719 62.644531 C 232.386719 63.671875 233.222656 64.503906 234.25 64.503906 L 241.910156 64.503906 C 242.9375 64.503906 243.769531 63.671875 243.769531 62.644531 Z M 228.304688 62.644531 C 228.304688 61.613281 227.472656 60.78125 226.441406 60.78125 L 218.78125 60.78125 C 217.753906 60.78125 216.921875 61.613281 216.921875 62.644531 C 216.921875 63.671875 217.753906 64.503906 218.78125 64.503906 L 226.441406 64.503906 C 227.472656 64.503906 228.304688 63.671875 228.304688 62.644531 Z M 235.675781 80.042969 C 235.675781 79.015625 234.84375 78.183594 233.8125 78.183594 L 212.15625 78.183594 C 211.125 78.183594 210.292969 79.015625 210.292969 80.042969 C 210.292969 81.074219 211.125 81.90625 212.15625 81.90625 L 233.8125 81.90625 C 234.84375 81.90625 235.675781 81.074219 235.675781 80.042969 Z M 286.933594 77.683594 L 310.609375 77.683594 L 310.609375 50.089844 L 286.933594 50.089844 Z M 286.933594 49.089844 L 310.609375 49.089844 L 310.609375 21.5 L 286.933594 21.5 Z M 321.863281 75.972656 L 419.410156 75.972656 L 419.410156 25.976562 L 321.863281 25.976562 Z M 331.769531 9.160156 C 331.769531 10.605469 332.941406 11.777344 334.386719 11.777344 C 335.832031 11.777344 337.003906 10.605469 337.003906 9.160156 C 337.003906 7.71875 335.832031 6.546875 334.386719 6.546875 C 332.941406 6.546875 331.769531 7.71875 331.769531 9.160156 Z M 400.144531 81.40625 L 384.664062 81.40625 L 384.664062 82.40625 L 400.144531 82.40625 Z M 400.144531 84.738281 L 393.664062 84.738281 L 393.664062 85.738281 L 400.144531 85.738281 Z M 391.144531 85.738281 L 391.144531 84.738281 L 384.664062 84.738281 L 384.664062 85.738281 Z M 394.84375 88.074219 L 384.664062 88.074219 L 384.664062 89.074219 L 394.84375 89.074219 Z M 368.144531 81.40625 L 352.664062 81.40625 L 352.664062 82.40625 L 368.144531 82.40625 Z M 368.144531 84.738281 L 361.664062 84.738281 L 361.664062 85.738281 L 368.144531 85.738281 Z M 359.144531 85.738281 L 359.144531 84.738281 L 352.664062 84.738281 L 352.664062 85.738281 Z M 362.84375 88.074219 L 352.664062 88.074219 L 352.664062 89.074219 L 362.84375 89.074219 Z M 34.328125 97.875 L 34.328125 5 C 34.328125 2.238281 36.566406 0 39.328125 0 L 146.585938 0 C 149.347656 0 151.585938 2.238281 151.585938 5 L 151.585938 20.5 L 169.675781 20.5 L 169.675781 5 C 169.675781 2.238281 171.914062 0 174.675781 0 L 281.933594 0 C 284.695312 0 286.933594 2.238281 286.933594 5 L 286.933594 20.5 L 310.609375 20.5 L 310.609375 5 C 310.609375 2.238281 312.847656 0 315.609375 0 L 422.863281 0 C 425.628906 0 427.863281 2.238281 427.863281 5 L 427.863281 77.683594 L 440.785156 77.683594 C 440.988281 78.011719 441.175781 78.351562 441.371094 78.683594 L 427.863281 78.683594 L 427.863281 97.875 C 427.863281 100.636719 425.628906 102.875 422.863281 102.875 L 315.609375 102.875 C 312.847656 102.875 310.609375 100.636719 310.609375 97.875 L 310.609375 78.683594 L 286.933594 78.683594 L 286.933594 87.472656 C 286.933594 90.234375 284.695312 92.472656 281.933594 92.472656 L 174.675781 92.472656 C 171.914062 92.472656 169.675781 90.234375 169.675781 87.472656 L 169.675781 78.683594 L 151.585938 78.683594 L 151.585938 97.875 C 151.585938 100.636719 149.347656 102.875 146.585938 102.875 L 39.328125 102.875 C 36.566406 102.875 34.328125 100.636719 34.328125 97.875 Z M 378.609375 124.324219 C 378.058594 124.324219 377.609375 124.773438 377.609375 125.324219 C 377.609375 125.878906 378.058594 126.324219 378.609375 126.324219 L 398.808594 126.324219 C 399.363281 126.324219 399.808594 125.878906 399.808594 125.324219 C 399.808594 124.773438 399.363281 124.324219 398.808594 124.324219 Z M 400.488281 242.414062 C 400.488281 241.863281 400.042969 241.414062 399.488281 241.414062 L 372.980469 241.414062 C 372.429688 241.414062 371.980469 241.863281 371.980469 242.414062 C 371.980469 242.964844 372.429688 243.414062 372.980469 243.414062 L 399.488281 243.414062 C 400.042969 243.414062 400.488281 242.964844 400.488281 242.414062 Z M 389.410156 262.015625 C 389.410156 261.460938 388.964844 261.015625 388.410156 261.015625 L 350.171875 261.015625 C 349.621094 261.015625 349.171875 261.460938 349.171875 262.015625 C 349.171875 262.566406 349.621094 263.015625 350.171875 263.015625 L 388.410156 263.015625 C 388.964844 263.015625 389.410156 262.566406 389.410156 262.015625 Z M 388.589844 268.546875 C 388.589844 267.996094 388.144531 267.546875 387.589844 267.546875 L 349.351562 267.546875 C 348.796875 267.546875 348.351562 267.996094 348.351562 268.546875 C 348.351562 269.101562 348.796875 269.546875 349.351562 269.546875 L 387.589844 269.546875 C 388.144531 269.546875 388.589844 269.101562 388.589844 268.546875 Z M 350.8125 248.945312 C 350.8125 249.5 351.261719 249.945312 351.8125 249.945312 L 382.714844 249.945312 C 383.265625 249.945312 383.714844 249.5 383.714844 248.945312 C 383.714844 248.394531 383.265625 247.945312 382.714844 247.945312 L 351.8125 247.945312 C 351.261719 247.945312 350.8125 248.394531 350.8125 248.945312 Z M 351.636719 242.414062 C 351.636719 242.964844 352.082031 243.414062 352.636719 243.414062 L 365.890625 243.414062 C 366.441406 243.414062 366.890625 242.964844 366.890625 242.414062 C 366.890625 241.863281 366.441406 241.414062 365.890625 241.414062 L 352.636719 241.414062 C 352.082031 241.414062 351.636719 241.863281 351.636719 242.414062 Z M 352.457031 235.882812 C 352.457031 236.433594 352.902344 236.882812 353.457031 236.882812 L 391.695312 236.882812 C 392.25 236.882812 392.695312 236.433594 392.695312 235.882812 C 392.695312 235.328125 392.25 234.882812 391.695312 234.882812 L 353.457031 234.882812 C 352.902344 234.882812 352.457031 235.328125 352.457031 235.882812 Z M 345.097656 235.882812 C 345.097656 235.328125 344.648438 234.882812 344.097656 234.882812 L 337.429688 234.882812 C 336.878906 234.882812 336.429688 235.328125 336.429688 235.882812 C 336.429688 236.433594 336.878906 236.882812 337.429688 236.882812 L 344.097656 236.882812 C 344.648438 236.882812 345.097656 236.433594 345.097656 235.882812 Z M 344.273438 242.414062 C 344.273438 241.863281 343.828125 241.414062 343.273438 241.414062 L 336.609375 241.414062 C 336.054688 241.414062 335.609375 241.863281 335.609375 242.414062 C 335.609375 242.964844 336.054688 243.414062 336.609375 243.414062 L 343.273438 243.414062 C 343.828125 243.414062 344.273438 242.964844 344.273438 242.414062 Z M 343.453125 248.945312 C 343.453125 248.394531 343.007812 247.945312 342.453125 247.945312 L 335.785156 247.945312 C 335.234375 247.945312 334.785156 248.394531 334.785156 248.945312 C 334.785156 249.5 335.234375 249.945312 335.785156 249.945312 L 342.453125 249.945312 C 343.007812 249.945312 343.453125 249.5 343.453125 248.945312 Z M 341.8125 262.015625 C 341.8125 261.460938 341.363281 261.015625 340.8125 261.015625 L 334.144531 261.015625 C 333.59375 261.015625 333.144531 261.460938 333.144531 262.015625 C 333.144531 262.566406 333.59375 263.015625 334.144531 263.015625 L 340.8125 263.015625 C 341.363281 263.015625 341.8125 262.566406 341.8125 262.015625 Z M 340.992188 268.546875 C 340.992188 267.996094 340.542969 267.546875 339.992188 267.546875 L 333.324219 267.546875 C 332.769531 267.546875 332.324219 267.996094 332.324219 268.546875 C 332.324219 269.101562 332.769531 269.546875 333.324219 269.546875 L 339.992188 269.546875 C 340.542969 269.546875 340.992188 269.101562 340.992188 268.546875 Z M 413.714844 231.863281 L 408.214844 275.605469 L 396.210938 275.605469 C 396.3125 275.453125 396.382812 275.277344 396.382812 275.082031 C 396.382812 274.527344 395.9375 274.082031 395.382812 274.082031 L 368.875 274.082031 C 368.324219 274.082031 367.875 274.527344 367.875 275.082031 C 367.875 275.277344 367.945312 275.453125 368.046875 275.605469 L 362.613281 275.605469 C 362.710938 275.453125 362.785156 275.277344 362.785156 275.082031 C 362.785156 274.527344 362.335938 274.082031 361.785156 274.082031 L 348.527344 274.082031 C 347.976562 274.082031 347.527344 274.527344 347.527344 275.082031 C 347.527344 275.277344 347.601562 275.453125 347.699219 275.605469 L 339.996094 275.605469 C 340.097656 275.453125 340.167969 275.277344 340.167969 275.082031 C 340.167969 274.527344 339.722656 274.082031 339.167969 274.082031 L 332.503906 274.082031 C 331.949219 274.082031 331.503906 274.527344 331.503906 275.082031 C 331.503906 275.277344 331.574219 275.453125 331.675781 275.605469 L 325.101562 275.605469 L 330.601562 231.863281 C 330.949219 229.101562 333.46875 226.863281 336.230469 226.863281 L 409.34375 226.863281 C 412.101562 226.863281 414.0625 229.101562 413.714844 231.863281 Z M 271.757812 246.519531 L 264.140625 246.519531 C 263.089844 246.519531 262.132812 247.371094 262.003906 248.421875 C 261.871094 249.46875 262.613281 250.320312 263.664062 250.320312 L 271.28125 250.320312 C 272.332031 250.320312 273.289062 249.46875 273.421875 248.421875 C 273.550781 247.371094 272.808594 246.519531 271.757812 246.519531 Z M 253.796875 246.519531 L 246.179688 246.519531 C 245.128906 246.519531 244.171875 247.371094 244.039062 248.421875 C 243.910156 249.46875 244.652344 250.320312 245.703125 250.320312 L 253.320312 250.320312 C 254.367188 250.320312 255.328125 249.46875 255.460938 248.421875 C 255.589844 247.371094 254.847656 246.519531 253.796875 246.519531 Z M 240.746094 230.539062 C 239.929688 230.539062 239.183594 231.203125 239.082031 232.019531 C 238.980469 232.835938 239.558594 233.5 240.375 233.5 C 241.191406 233.5 241.9375 232.835938 242.039062 232.019531 C 242.144531 231.203125 241.5625 230.539062 240.746094 230.539062 Z M 245.976562 233.5 C 246.792969 233.5 247.535156 232.835938 247.640625 232.019531 C 247.742188 231.203125 247.164062 230.539062 246.347656 230.539062 C 245.53125 230.539062 244.785156 231.203125 244.683594 232.019531 C 244.578125 232.835938 245.160156 233.5 245.976562 233.5 Z M 251.574219 233.5 C 252.390625 233.5 253.136719 232.835938 253.238281 232.019531 C 253.34375 231.203125 252.765625 230.539062 251.945312 230.539062 C 251.128906 230.539062 250.386719 231.203125 250.28125 232.019531 C 250.179688 232.835938 250.757812 233.5 251.574219 233.5 Z M 267.148438 239.71875 L 252.246094 239.71875 C 251.695312 239.71875 251.246094 240.167969 251.246094 240.71875 C 251.246094 241.273438 251.695312 241.71875 252.246094 241.71875 L 267.148438 241.71875 C 267.703125 241.71875 268.148438 241.273438 268.148438 240.71875 C 268.148438 240.167969 267.703125 239.71875 267.148438 239.71875 Z M 282.285156 226.851562 C 285.046875 226.851562 287.007812 229.09375 286.660156 231.851562 L 284.5625 248.519531 C 284.21875 251.28125 281.695312 253.519531 278.9375 253.519531 L 236.472656 253.519531 C 233.710938 253.519531 231.753906 251.28125 232.101562 248.519531 L 234.195312 231.851562 C 234.542969 229.09375 237.0625 226.851562 239.824219 226.851562 Z M 259.699219 139.988281 C 259.804688 139.171875 259.226562 138.507812 258.40625 138.507812 C 257.59375 138.507812 256.847656 139.171875 256.742188 139.988281 C 256.640625 140.804688 257.21875 141.464844 258.035156 141.464844 C 258.851562 141.464844 259.597656 140.804688 259.699219 139.988281 Z M 312.492188 212.675781 C 312.492188 212.121094 312.042969 211.675781 311.492188 211.675781 L 306.382812 211.675781 C 305.828125 211.675781 305.382812 212.121094 305.382812 212.675781 C 305.382812 213.226562 305.828125 213.675781 306.382812 213.675781 L 311.492188 213.675781 C 312.042969 213.675781 312.492188 213.226562 312.492188 212.675781 Z M 305.164062 161.34375 C 305.714844 161.34375 306.164062 160.894531 306.164062 160.34375 C 306.164062 159.789062 305.714844 159.34375 305.164062 159.34375 L 290.277344 159.34375 C 289.726562 159.34375 289.277344 159.789062 289.277344 160.34375 C 289.277344 160.894531 289.726562 161.34375 290.277344 161.34375 Z M 302.265625 169.097656 L 266.042969 169.097656 C 264.570312 169.097656 263.226562 170.292969 263.042969 171.765625 L 261.945312 180.476562 C 261.761719 181.945312 262.804688 183.140625 264.277344 183.140625 L 300.5 183.140625 C 301.972656 183.140625 303.316406 181.945312 303.5 180.476562 L 304.59375 171.765625 C 304.78125 170.292969 303.734375 169.097656 302.265625 169.097656 Z M 286.636719 208.875 L 291.746094 208.875 C 292.296875 208.875 292.746094 208.425781 292.746094 207.875 C 292.746094 207.320312 292.296875 206.875 291.746094 206.875 L 286.636719 206.875 C 286.082031 206.875 285.636719 207.320312 285.636719 207.875 C 285.636719 208.425781 286.082031 208.875 286.636719 208.875 Z M 295.386719 212.675781 C 295.386719 212.121094 294.9375 211.675781 294.386719 211.675781 L 286.03125 211.675781 C 285.480469 211.675781 285.03125 212.121094 285.03125 212.675781 C 285.03125 213.226562 285.480469 213.675781 286.03125 213.675781 L 294.386719 213.675781 C 294.9375 213.675781 295.386719 213.226562 295.386719 212.675781 Z M 278.09375 207.875 C 278.09375 207.320312 277.644531 206.875 277.09375 206.875 L 268.171875 206.875 C 267.617188 206.875 267.171875 207.320312 267.171875 207.875 C 267.171875 208.425781 267.617188 208.875 268.171875 208.875 L 277.09375 208.875 C 277.644531 208.875 278.09375 208.425781 278.09375 207.875 Z M 273.679688 212.675781 C 273.679688 212.121094 273.230469 211.675781 272.679688 211.675781 L 267.566406 211.675781 C 267.015625 211.675781 266.566406 212.121094 266.566406 212.675781 C 266.566406 213.226562 267.015625 213.675781 267.566406 213.675781 L 272.679688 213.675781 C 273.230469 213.675781 273.679688 213.226562 273.679688 212.675781 Z M 257.921875 207.875 C 257.921875 207.320312 257.476562 206.875 256.921875 206.875 L 246.703125 206.875 C 246.152344 206.875 245.703125 207.320312 245.703125 207.875 C 245.703125 208.425781 246.152344 208.875 246.703125 208.875 L 256.921875 208.875 C 257.476562 208.875 257.921875 208.425781 257.921875 207.875 Z M 253.238281 212.675781 C 253.238281 212.121094 252.789062 211.675781 252.238281 211.675781 L 246.101562 211.675781 C 245.546875 211.675781 245.101562 212.121094 245.101562 212.675781 C 245.101562 213.226562 245.546875 213.675781 246.101562 213.675781 L 252.238281 213.675781 C 252.789062 213.675781 253.238281 213.226562 253.238281 212.675781 Z M 263.476562 160.34375 C 263.476562 160.894531 263.925781 161.34375 264.476562 161.34375 L 283.363281 161.34375 C 283.917969 161.34375 284.363281 160.894531 284.363281 160.34375 C 284.363281 159.789062 283.917969 159.34375 283.363281 159.34375 L 264.476562 159.34375 C 263.925781 159.34375 263.476562 159.789062 263.476562 160.34375 Z M 305.984375 207.875 C 305.984375 208.425781 306.433594 208.875 306.984375 208.875 L 315.90625 208.875 C 316.457031 208.875 316.90625 208.425781 316.90625 207.875 C 316.90625 207.320312 316.457031 206.875 315.90625 206.875 L 306.984375 206.875 C 306.433594 206.875 305.984375 207.320312 305.984375 207.875 Z M 314.371094 219.542969 L 241.257812 219.542969 C 238.496094 219.542969 236.539062 217.304688 236.886719 214.542969 L 245.339844 147.273438 L 328.453125 147.273438 L 329.65625 137.699219 L 319.996094 214.542969 C 319.652344 217.304688 317.132812 219.542969 314.371094 219.542969 Z M 426.328125 268.519531 L 416.238281 268.519531 C 415.6875 268.519531 415.238281 268.96875 415.238281 269.519531 C 415.238281 270.070312 415.6875 270.519531 416.238281 270.519531 L 426.328125 270.519531 C 426.878906 270.519531 427.328125 270.070312 427.328125 269.519531 C 427.328125 268.96875 426.878906 268.519531 426.328125 268.519531 Z M 431.257812 261.984375 L 417.0625 261.984375 C 416.507812 261.984375 416.0625 262.433594 416.0625 262.984375 C 416.0625 263.539062 416.507812 263.984375 417.0625 263.984375 L 431.257812 263.984375 C 431.8125 263.984375 432.257812 263.539062 432.257812 262.984375 C 432.257812 262.433594 431.8125 261.984375 431.257812 261.984375 Z M 417.882812 257.453125 L 426.308594 257.453125 C 426.859375 257.453125 427.308594 257.003906 427.308594 256.453125 C 427.308594 255.902344 426.859375 255.453125 426.308594 255.453125 L 417.882812 255.453125 C 417.328125 255.453125 416.882812 255.902344 416.882812 256.453125 C 416.882812 257.003906 417.328125 257.453125 417.882812 257.453125 Z M 436.148438 181.652344 L 426.0625 181.652344 C 425.507812 181.652344 425.0625 182.101562 425.0625 182.652344 C 425.0625 183.207031 425.507812 183.652344 426.0625 183.652344 L 436.148438 183.652344 C 436.699219 183.652344 437.148438 183.207031 437.148438 182.652344 C 437.148438 182.101562 436.699219 181.652344 436.148438 181.652344 Z M 441.078125 175.121094 L 426.882812 175.121094 C 426.328125 175.121094 425.882812 175.566406 425.882812 176.121094 C 425.882812 176.671875 426.328125 177.121094 426.882812 177.121094 L 441.078125 177.121094 C 441.632812 177.121094 442.078125 176.671875 442.078125 176.121094 C 442.078125 175.566406 441.632812 175.121094 441.078125 175.121094 Z M 427.703125 168.585938 C 427.152344 168.585938 426.703125 169.035156 426.703125 169.585938 C 426.703125 170.140625 427.152344 170.585938 427.703125 170.585938 L 436.128906 170.585938 C 436.683594 170.585938 437.128906 170.140625 437.128906 169.585938 C 437.128906 169.035156 436.683594 168.585938 436.128906 168.585938 Z M 412.445312 147.273438 C 412.445312 146.722656 412 146.273438 411.445312 146.273438 L 394.597656 146.273438 C 394.042969 146.273438 393.597656 146.722656 393.597656 147.273438 C 393.597656 147.828125 394.042969 148.273438 394.597656 148.273438 L 411.445312 148.273438 C 412 148.273438 412.445312 147.828125 412.445312 147.273438 Z M 404.007812 160.34375 C 404.007812 159.789062 403.5625 159.34375 403.007812 159.34375 L 388.285156 159.34375 C 387.734375 159.34375 387.285156 159.789062 387.285156 160.34375 C 387.285156 160.894531 387.734375 161.34375 388.285156 161.34375 L 403.007812 161.34375 C 403.5625 161.34375 404.007812 160.894531 404.007812 160.34375 Z M 399.902344 193.007812 C 399.902344 192.457031 399.457031 192.007812 398.902344 192.007812 L 384.179688 192.007812 C 383.628906 192.007812 383.179688 192.457031 383.179688 193.007812 C 383.179688 193.5625 383.628906 194.007812 384.179688 194.007812 L 398.902344 194.007812 C 399.457031 194.007812 399.902344 193.5625 399.902344 193.007812 Z M 392.59375 199.542969 C 392.59375 198.988281 392.148438 198.542969 391.59375 198.542969 L 373.804688 198.542969 C 373.25 198.542969 372.804688 198.988281 372.804688 199.542969 C 372.804688 200.09375 373.25 200.542969 373.804688 200.542969 L 391.59375 200.542969 C 392.148438 200.542969 392.59375 200.09375 392.59375 199.542969 Z M 382.511719 206.074219 C 382.511719 205.523438 382.0625 205.074219 381.511719 205.074219 L 357.203125 205.074219 C 356.648438 205.074219 356.203125 205.523438 356.203125 206.074219 C 356.203125 206.628906 356.648438 207.074219 357.203125 207.074219 L 381.511719 207.074219 C 382.0625 207.074219 382.511719 206.628906 382.511719 206.074219 Z M 356.230469 147.273438 C 356.230469 146.722656 355.785156 146.273438 355.230469 146.273438 L 348.566406 146.273438 C 348.015625 146.273438 347.566406 146.722656 347.566406 147.273438 C 347.566406 147.828125 348.015625 148.273438 348.566406 148.273438 L 355.230469 148.273438 C 355.785156 148.273438 356.230469 147.828125 356.230469 147.273438 Z M 355.410156 153.808594 C 355.410156 153.257812 354.964844 152.808594 354.410156 152.808594 L 347.746094 152.808594 C 347.191406 152.808594 346.746094 153.257812 346.746094 153.808594 C 346.746094 154.359375 347.191406 154.808594 347.746094 154.808594 L 354.410156 154.808594 C 354.964844 154.808594 355.410156 154.359375 355.410156 153.808594 Z M 354.589844 160.34375 C 354.589844 159.789062 354.144531 159.34375 353.589844 159.34375 L 346.925781 159.34375 C 346.371094 159.34375 345.925781 159.789062 345.925781 160.34375 C 345.925781 160.894531 346.371094 161.34375 346.925781 161.34375 L 353.589844 161.34375 C 354.144531 161.34375 354.589844 160.894531 354.589844 160.34375 Z M 353.769531 166.875 C 353.769531 166.324219 353.320312 165.875 352.769531 165.875 L 346.101562 165.875 C 345.550781 165.875 345.101562 166.324219 345.101562 166.875 C 345.101562 167.425781 345.550781 167.875 346.101562 167.875 L 352.769531 167.875 C 353.320312 167.875 353.769531 167.425781 353.769531 166.875 Z M 352.949219 173.410156 C 352.949219 172.855469 352.5 172.410156 351.949219 172.410156 L 345.28125 172.410156 C 344.730469 172.410156 344.28125 172.855469 344.28125 173.410156 C 344.28125 173.960938 344.730469 174.410156 345.28125 174.410156 L 351.949219 174.410156 C 352.5 174.410156 352.949219 173.960938 352.949219 173.410156 Z M 351.304688 186.476562 C 351.304688 185.921875 350.859375 185.476562 350.304688 185.476562 L 343.640625 185.476562 C 343.085938 185.476562 342.640625 185.921875 342.640625 186.476562 C 342.640625 187.027344 343.085938 187.476562 343.640625 187.476562 L 350.304688 187.476562 C 350.859375 187.476562 351.304688 187.027344 351.304688 186.476562 Z M 350.484375 193.007812 C 350.484375 192.457031 350.035156 192.007812 349.484375 192.007812 L 342.816406 192.007812 C 342.265625 192.007812 341.816406 192.457031 341.816406 193.007812 C 341.816406 193.5625 342.265625 194.007812 342.816406 194.007812 L 349.484375 194.007812 C 350.035156 194.007812 350.484375 193.5625 350.484375 193.007812 Z M 349.664062 199.542969 C 349.664062 198.988281 349.214844 198.542969 348.664062 198.542969 L 341.996094 198.542969 C 341.445312 198.542969 340.996094 198.988281 340.996094 199.542969 C 340.996094 200.09375 341.445312 200.542969 341.996094 200.542969 L 348.664062 200.542969 C 349.214844 200.542969 349.664062 200.09375 349.664062 199.542969 Z M 348.84375 206.074219 C 348.84375 205.523438 348.394531 205.074219 347.84375 205.074219 L 341.175781 205.074219 C 340.625 205.074219 340.175781 205.523438 340.175781 206.074219 C 340.175781 206.628906 340.625 207.074219 341.175781 207.074219 L 347.84375 207.074219 C 348.394531 207.074219 348.84375 206.628906 348.84375 206.074219 Z M 357.023438 199.542969 C 357.023438 200.09375 357.472656 200.542969 358.023438 200.542969 L 368.109375 200.542969 C 368.660156 200.542969 369.109375 200.09375 369.109375 199.542969 C 369.109375 198.988281 368.660156 198.542969 368.109375 198.542969 L 358.023438 198.542969 C 357.472656 198.542969 357.023438 198.988281 357.023438 199.542969 Z M 357.84375 193.007812 C 357.84375 193.5625 358.292969 194.007812 358.84375 194.007812 L 378.488281 194.007812 C 379.039062 194.007812 379.488281 193.5625 379.488281 193.007812 C 379.488281 192.457031 379.039062 192.007812 378.488281 192.007812 L 358.84375 192.007812 C 358.292969 192.007812 357.84375 192.457031 357.84375 193.007812 Z M 358.664062 186.476562 C 358.664062 187.027344 359.113281 187.476562 359.664062 187.476562 L 368.089844 187.476562 C 368.644531 187.476562 369.089844 187.027344 369.089844 186.476562 C 369.089844 185.921875 368.644531 185.476562 368.089844 185.476562 L 359.664062 185.476562 C 359.113281 185.476562 358.664062 185.921875 358.664062 186.476562 Z M 360.308594 173.410156 C 360.308594 173.960938 360.757812 174.410156 361.308594 174.410156 L 373.460938 174.410156 C 374.015625 174.410156 374.460938 173.960938 374.460938 173.410156 C 374.460938 172.855469 374.015625 172.410156 373.460938 172.410156 L 361.308594 172.410156 C 360.757812 172.410156 360.308594 172.855469 360.308594 173.410156 Z M 361.128906 166.875 C 361.128906 167.425781 361.578125 167.875 362.128906 167.875 L 372.214844 167.875 C 372.769531 167.875 373.214844 167.425781 373.214844 166.875 C 373.214844 166.324219 372.769531 165.875 372.214844 165.875 L 362.128906 165.875 C 361.578125 165.875 361.128906 166.324219 361.128906 166.875 Z M 361.949219 160.34375 C 361.949219 160.894531 362.398438 161.34375 362.949219 161.34375 L 382.59375 161.34375 C 383.144531 161.34375 383.59375 160.894531 383.59375 160.34375 C 383.59375 159.789062 383.144531 159.34375 382.59375 159.34375 L 362.949219 159.34375 C 362.398438 159.34375 361.949219 159.789062 361.949219 160.34375 Z M 362.769531 153.808594 C 362.769531 154.359375 363.21875 154.808594 363.769531 154.808594 L 372.195312 154.808594 C 372.75 154.808594 373.195312 154.359375 373.195312 153.808594 C 373.195312 153.257812 372.75 152.808594 372.195312 152.808594 L 363.769531 152.808594 C 363.21875 152.808594 362.769531 153.257812 362.769531 153.808594 Z M 363.59375 147.273438 C 363.59375 147.828125 364.039062 148.273438 364.59375 148.273438 L 388.902344 148.273438 C 389.453125 148.273438 389.902344 147.828125 389.902344 147.273438 C 389.902344 146.722656 389.453125 146.273438 388.902344 146.273438 L 364.59375 146.273438 C 364.039062 146.273438 363.59375 146.722656 363.59375 147.273438 Z M 393.554688 154.808594 C 394.109375 154.808594 394.554688 154.359375 394.554688 153.808594 C 394.554688 153.257812 394.109375 152.808594 393.554688 152.808594 L 376.703125 152.808594 C 376.152344 152.808594 375.703125 153.257812 375.703125 153.808594 C 375.703125 154.359375 376.152344 154.808594 376.703125 154.808594 Z M 385.589844 166.875 C 385.589844 166.324219 385.140625 165.875 384.589844 165.875 L 377.910156 165.875 C 377.355469 165.875 376.910156 166.324219 376.910156 166.875 C 376.910156 167.425781 377.355469 167.875 377.910156 167.875 L 384.589844 167.875 C 385.140625 167.875 385.589844 167.425781 385.589844 166.875 Z M 389.449219 185.476562 L 372.597656 185.476562 C 372.046875 185.476562 371.597656 185.921875 371.597656 186.476562 C 371.597656 187.027344 372.046875 187.476562 372.597656 187.476562 L 389.449219 187.476562 C 390.003906 187.476562 390.449219 187.027344 390.449219 186.476562 C 390.449219 185.921875 390.003906 185.476562 389.449219 185.476562 Z M 395.253906 174.410156 C 395.804688 174.410156 396.253906 173.960938 396.253906 173.410156 C 396.253906 172.855469 395.804688 172.410156 395.253906 172.410156 L 377.832031 172.410156 C 377.28125 172.410156 376.832031 172.855469 376.832031 173.410156 C 376.832031 173.960938 377.28125 174.410156 377.832031 174.410156 Z M 415.890625 214.542969 C 415.542969 217.304688 413.023438 219.542969 410.261719 219.542969 L 337.148438 219.542969 C 334.386719 219.542969 332.429688 217.304688 332.777344 214.542969 L 342.4375 137.699219 C 342.78125 134.9375 345.304688 132.699219 348.0625 132.699219 L 421.175781 132.699219 C 423.9375 132.699219 425.894531 134.9375 425.550781 137.699219 Z M 154.515625 163.457031 L 153.585938 155.785156 C 152.6875 148.335938 154.882812 141.296875 159.097656 135.863281 L 118.136719 135.863281 L 118.136719 163.34375 C 118.136719 163.382812 118.125 163.417969 118.125 163.457031 Z M 109.742188 134.941406 L 99.835938 134.941406 L 99.835938 158.90625 L 109.742188 158.90625 Z M 94.808594 135.863281 L 94.808594 131.941406 L 84.902344 131.941406 L 84.902344 158.90625 L 94.808594 158.90625 Z M 79.875 138.539062 L 69.96875 138.539062 L 69.96875 158.90625 L 79.875 158.90625 Z M 64.941406 150.578125 L 55.035156 150.578125 L 55.035156 158.90625 L 64.941406 158.90625 Z M 50.007812 146.339844 L 40.101562 146.339844 L 40.101562 158.90625 L 50.007812 158.90625 Z M 151.230469 193.046875 L 0.445312 193.046875 C 0.421875 192.714844 0.394531 192.378906 0.375 192.046875 L 151.511719 192.046875 L 154.253906 182.386719 C 155.433594 178.222656 155.773438 173.871094 155.253906 169.574219 L 154.636719 164.457031 L 118 164.457031 C 117.492188 166.679688 115.511719 168.34375 113.136719 168.34375 L 39.328125 168.34375 C 36.949219 168.34375 34.96875 166.679688 34.460938 164.457031 L 0.738281 164.457031 C 0.769531 164.121094 0.808594 163.789062 0.84375 163.457031 L 34.339844 163.457031 C 34.339844 163.417969 34.328125 163.382812 34.328125 163.34375 L 34.328125 135.863281 L 6.066406 135.863281 C 6.160156 135.527344 6.265625 135.199219 6.363281 134.863281 L 34.328125 134.863281 L 34.328125 124.625 C 34.328125 121.863281 36.566406 119.625 39.328125 119.625 L 113.136719 119.625 C 115.894531 119.625 118.136719 121.863281 118.136719 124.625 L 118.136719 134.863281 L 159.914062 134.863281 C 164.875 129.058594 172.246094 125.324219 180.585938 125.324219 C 188.816406 125.324219 196.257812 129 201.269531 134.863281 L 227.597656 134.863281 L 227.488281 135.863281 L 202.085938 135.863281 C 205.105469 139.757812 207.101562 144.507812 207.636719 149.730469 L 207.910156 152.375 L 213.605469 163.457031 L 224.429688 163.457031 L 224.316406 164.457031 L 213.972656 164.457031 C 213.996094 165.089844 213.601562 165.703125 212.941406 165.894531 L 210.707031 166.550781 C 210.054688 166.738281 209.628906 167.355469 209.679688 168.03125 C 210.023438 172.480469 211.023438 188.347656 207.910156 190.023438 C 204.285156 191.976562 186.976562 188.476562 186.976562 188.476562 C 186.648438 189.65625 186.378906 190.847656 186.152344 192.046875 L 221.257812 192.046875 L 221.148438 193.046875 L 185.980469 193.046875 C 185.367188 196.757812 185.214844 200.527344 185.535156 204.269531 C 181.65625 202.945312 176.472656 200.914062 168.410156 199.273438 C 160.683594 197.703125 153.234375 199.476562 149.007812 200.886719 Z M 128.554688 273.570312 C 127.324219 265.800781 125.703125 257.785156 123.675781 250.230469 L 123.679688 250.230469 C 123.644531 250.097656 123.609375 249.96875 123.574219 249.839844 C 122.847656 247.167969 122.074219 244.550781 121.246094 242.03125 C 118.476562 233.609375 121.109375 225.050781 126.84375 219.519531 C 126.566406 219.644531 126.285156 219.753906 126.011719 219.890625 C 125.542969 220.125 125.097656 220.378906 124.65625 220.636719 L 4.253906 220.636719 C 4.324219 220.972656 4.390625 221.304688 4.460938 221.636719 L 123.117188 221.636719 C 114.46875 227.84375 111.679688 239.730469 117.027344 249.230469 L 12.125 249.230469 C 12.238281 249.5625 12.34375 249.898438 12.460938 250.230469 L 117.585938 250.230469 Z M 222.335938 421.417969 C 226.417969 421.417969 230.507812 421.195312 234.601562 420.777344 L 208.441406 420.777344 C 213.058594 421.1875 217.691406 421.417969 222.335938 421.417969 Z M 166.292969 392.21875 C 165.324219 392.21875 164.378906 392.207031 163.449219 392.1875 L 125.96875 392.1875 C 126.519531 392.523438 127.074219 392.851562 127.625 393.1875 L 307.445312 393.1875 C 307.960938 392.855469 308.472656 392.519531 308.984375 392.1875 L 167.511719 392.1875 C 167.101562 392.191406 166.710938 392.21875 166.292969 392.21875 Z M 126.59375 363.59375 L 88.058594 363.59375 C 88.425781 363.929688 88.792969 364.261719 89.160156 364.59375 L 126.652344 364.59375 C 126.632812 364.261719 126.613281 363.929688 126.59375 363.59375 Z M 211.070312 364.59375 L 344.148438 364.59375 C 344.507812 364.261719 344.867188 363.929688 345.226562 363.59375 L 211.425781 363.59375 C 211.3125 363.921875 211.195312 364.25 211.070312 364.59375 Z M 127.382812 335.003906 L 60.792969 335.003906 C 61.074219 335.339844 61.359375 335.667969 61.640625 336.003906 L 127.28125 336.003906 C 127.3125 335.667969 127.347656 335.335938 127.382812 335.003906 Z M 131.535156 306.410156 L 39.945312 306.410156 C 40.160156 306.746094 40.375 307.078125 40.589844 307.410156 L 131.535156 307.410156 C 131.535156 307.085938 131.535156 306.753906 131.535156 306.410156 Z M 285.621094 320.753906 C 287.964844 321.132812 290.269531 321.496094 292.5 321.835938 L 292.246094 321.441406 L 286.3125 320.183594 Z M 337.894531 335.003906 L 352.945312 335.003906 L 348.183594 331.683594 L 339.667969 333.628906 Z M 222.421875 277.820312 L 413.152344 277.820312 C 412.957031 278.152344 412.765625 278.488281 412.570312 278.820312 L 222.929688 278.820312 C 229.265625 291.09375 235.074219 301.296875 238.578125 306.410156 L 394.796875 306.410156 C 394.5625 306.746094 394.328125 307.078125 394.09375 307.410156 L 239.28125 307.410156 C 240.191406 308.675781 240.90625 309.503906 241.371094 309.8125 C 245.085938 312.289062 254.269531 314.773438 264.996094 317 L 282.011719 310.578125 C 283.75 309.925781 285.695312 310.148438 287.238281 311.179688 L 295.644531 316.796875 L 299.152344 322.828125 C 305.714844 323.777344 311.109375 324.488281 314.113281 324.871094 L 323.429688 324.519531 L 343.410156 317.617188 C 345.203125 317 347.1875 317.28125 348.734375 318.382812 L 357.15625 324.359375 L 362.949219 335.003906 L 372.605469 335.003906 C 372.320312 335.335938 372.035156 335.671875 371.75 336.003906 L 363.492188 336.003906 L 363.6875 336.363281 C 364.058594 337.046875 363.777344 337.902344 363.070312 338.226562 C 361.660156 338.128906 360.046875 337.425781 358.734375 336.445312 L 359.074219 338.746094 C 359.230469 339.796875 358.371094 340.726562 357.3125 340.648438 C 355.660156 340.53125 354.300781 339.304688 354.015625 337.671875 L 353.722656 336.003906 L 336.601562 336.003906 L 332.507812 339.171875 C 330.578125 340.660156 328.332031 341.65625 325.960938 342.089844 C 324.417969 342.371094 322.828125 342.324219 321.273438 342.113281 L 311.824219 340.808594 L 241.484375 340.308594 C 232.992188 339.953125 226.738281 338.339844 221.980469 336.003906 L 204.039062 336.003906 C 203.988281 335.84375 203.941406 335.683594 203.894531 335.519531 L 203.890625 335.519531 C 203.851562 335.386719 203.8125 335.253906 203.773438 335.117188 C 203.761719 335.082031 203.75 335.042969 203.738281 335.003906 L 203.742188 335.003906 C 202.238281 329.902344 201.15625 324.613281 201.15625 319.941406 C 201.15625 317.28125 201.550781 314.476562 202.191406 311.570312 C 202.355469 311.601562 202.523438 311.632812 202.691406 311.664062 L 192.140625 291.296875 C 191.585938 291.414062 191.019531 291.476562 190.441406 291.476562 C 185.191406 291.476562 180.011719 286.554688 176.121094 278.820312 L 24.4375 278.820312 C 24.277344 278.488281 24.109375 278.15625 23.945312 277.820312 L 175.632812 277.820312 C 172.777344 271.796875 170.679688 264.222656 169.875 255.984375 C 169.230469 249.378906 169.5 243.199219 170.496094 237.902344 C 170.417969 230.976562 172.285156 224.929688 177.449219 222.523438 C 177.863281 222.328125 178.28125 222.175781 178.695312 222.015625 C 180.171875 221.027344 181.78125 220.492188 183.507812 220.492188 C 184.210938 220.492188 184.910156 220.589844 185.605469 220.757812 C 192.53125 220.914062 198.691406 225.335938 201.609375 232.675781 C 207.445312 247.355469 215.234375 263.851562 222.414062 277.820312 Z M 214.808594 250.230469 L 214.917969 249.230469 L 210.917969 249.230469 C 211.03125 249.5625 211.144531 249.898438 211.253906 250.230469 Z M 218.089844 220.636719 L 198.503906 220.636719 C 198.617188 220.84375 198.734375 221.046875 198.839844 221.253906 C 198.902344 221.378906 198.96875 221.511719 199.03125 221.636719 L 217.980469 221.636719 Z M 452.707031 106.273438 L 18.183594 106.273438 C 18.003906 106.605469 17.828125 106.941406 17.652344 107.273438 L 452.949219 107.273438 C 452.867188 106.941406 452.789062 106.605469 452.707031 106.273438" fill="#f3d0d2"/></g><g clip-path="url(#c)" id="change4_1"><path d="M 343.855469 309.496094 L 315.6875 309.582031 L 301.605469 309.628906 L 287.523438 309.769531 L 287.523438 310.222656 L 301.605469 310.359375 L 315.6875 310.40625 L 343.855469 310.492188 L 372.019531 310.386719 L 386.105469 310.332031 L 400.1875 310.1875 L 400.1875 309.804688 L 386.105469 309.660156 L 372.019531 309.601562 Z M 332.042969 88.074219 L 321.867188 88.074219 L 321.867188 89.074219 L 332.042969 89.074219 Z M 337.34375 85.738281 L 337.34375 84.738281 L 330.867188 84.738281 L 330.867188 85.738281 Z M 328.34375 84.738281 L 321.867188 84.738281 L 321.867188 85.738281 L 328.34375 85.738281 Z M 337.34375 81.40625 L 321.867188 81.40625 L 321.867188 82.40625 L 337.34375 82.40625 Z M 344.292969 11.777344 C 345.738281 11.777344 346.910156 10.605469 346.910156 9.160156 C 346.910156 7.71875 345.738281 6.546875 344.292969 6.546875 C 342.847656 6.546875 341.679688 7.71875 341.679688 9.160156 C 341.679688 10.605469 342.847656 11.777344 344.292969 11.777344 Z M 202.136719 11.777344 C 203.582031 11.777344 204.753906 10.605469 204.753906 9.160156 C 204.753906 7.71875 203.582031 6.546875 202.136719 6.546875 C 200.691406 6.546875 199.519531 7.71875 199.519531 9.160156 C 199.519531 10.605469 200.691406 11.777344 202.136719 11.777344 Z M 99.953125 90.242188 L 89.773438 90.242188 L 89.773438 91.242188 L 99.953125 91.242188 Z M 105.253906 87.90625 L 105.253906 86.90625 L 98.773438 86.90625 L 98.773438 87.90625 Z M 96.253906 86.90625 L 89.773438 86.90625 L 89.773438 87.90625 L 96.253906 87.90625 Z M 105.253906 83.574219 L 89.773438 83.574219 L 89.773438 84.574219 L 105.253906 84.574219 Z M 63.160156 11.777344 C 64.601562 11.777344 65.773438 10.605469 65.773438 9.160156 C 65.773438 7.71875 64.601562 6.546875 63.160156 6.546875 C 61.714844 6.546875 60.542969 7.71875 60.542969 9.160156 C 60.542969 10.605469 61.714844 11.777344 63.160156 11.777344 Z M 44.554688 163.707031 L 45.554688 163.707031 L 45.554688 162.640625 L 59.488281 162.640625 L 59.488281 163.707031 L 60.488281 163.707031 L 60.488281 162.640625 L 74.421875 162.640625 L 74.421875 163.707031 L 75.421875 163.707031 L 75.421875 162.640625 L 89.355469 162.640625 L 89.355469 163.707031 L 90.355469 163.707031 L 90.355469 162.640625 L 104.289062 162.640625 L 104.289062 163.707031 L 105.289062 163.707031 L 105.289062 162.640625 L 109.839844 162.640625 L 109.839844 161.640625 L 105.289062 161.640625 L 105.289062 160.574219 L 104.289062 160.574219 L 104.289062 161.640625 L 90.355469 161.640625 L 90.355469 160.574219 L 89.355469 160.574219 L 89.355469 161.640625 L 75.421875 161.640625 L 75.421875 160.574219 L 74.421875 160.574219 L 74.421875 161.640625 L 60.488281 161.640625 L 60.488281 160.574219 L 59.488281 160.574219 L 59.488281 161.640625 L 45.554688 161.640625 L 45.554688 160.574219 L 44.554688 160.574219 L 44.554688 161.640625 L 40.101562 161.640625 L 40.101562 162.640625 L 44.554688 162.640625 Z M 369.207031 125.324219 C 369.207031 124.773438 368.757812 124.324219 368.207031 124.324219 L 239.011719 124.324219 C 238.457031 124.324219 238.011719 124.773438 238.011719 125.324219 C 238.011719 125.878906 238.457031 126.324219 239.011719 126.324219 L 368.207031 126.324219 C 368.757812 126.324219 369.207031 125.878906 369.207031 125.324219 Z M 339.992188 267.546875 L 333.324219 267.546875 C 332.769531 267.546875 332.324219 267.996094 332.324219 268.546875 C 332.324219 269.101562 332.769531 269.546875 333.324219 269.546875 L 339.992188 269.546875 C 340.542969 269.546875 340.992188 269.101562 340.992188 268.546875 C 340.992188 267.996094 340.542969 267.546875 339.992188 267.546875 Z M 341.8125 262.015625 C 341.8125 261.460938 341.363281 261.015625 340.8125 261.015625 L 334.144531 261.015625 C 333.59375 261.015625 333.144531 261.460938 333.144531 262.015625 C 333.144531 262.566406 333.59375 263.015625 334.144531 263.015625 L 340.8125 263.015625 C 341.363281 263.015625 341.8125 262.566406 341.8125 262.015625 Z M 343.453125 248.945312 C 343.453125 248.394531 343.007812 247.945312 342.453125 247.945312 L 335.785156 247.945312 C 335.234375 247.945312 334.785156 248.394531 334.785156 248.945312 C 334.785156 249.5 335.234375 249.945312 335.785156 249.945312 L 342.453125 249.945312 C 343.007812 249.945312 343.453125 249.5 343.453125 248.945312 Z M 344.273438 242.414062 C 344.273438 241.863281 343.828125 241.414062 343.273438 241.414062 L 336.609375 241.414062 C 336.054688 241.414062 335.609375 241.863281 335.609375 242.414062 C 335.609375 242.964844 336.054688 243.414062 336.609375 243.414062 L 343.273438 243.414062 C 343.828125 243.414062 344.273438 242.964844 344.273438 242.414062 Z M 345.097656 235.882812 C 345.097656 235.328125 344.648438 234.882812 344.097656 234.882812 L 337.429688 234.882812 C 336.878906 234.882812 336.429688 235.328125 336.429688 235.882812 C 336.429688 236.433594 336.878906 236.882812 337.429688 236.882812 L 344.097656 236.882812 C 344.648438 236.882812 345.097656 236.433594 345.097656 235.882812 Z M 250.28125 232.019531 C 250.179688 232.835938 250.757812 233.5 251.574219 233.5 C 252.390625 233.5 253.136719 232.835938 253.238281 232.019531 C 253.34375 231.203125 252.765625 230.539062 251.945312 230.539062 C 251.128906 230.539062 250.386719 231.203125 250.28125 232.019531 Z M 262.34375 139.988281 C 262.242188 140.804688 262.820312 141.464844 263.636719 141.464844 C 264.453125 141.464844 265.199219 140.804688 265.300781 139.988281 C 265.402344 139.171875 264.824219 138.507812 264.007812 138.507812 C 263.191406 138.507812 262.445312 139.171875 262.34375 139.988281 Z M 277.144531 175.121094 C 276.59375 175.121094 276.144531 175.566406 276.144531 176.121094 C 276.144531 176.671875 276.59375 177.121094 277.144531 177.121094 L 289.398438 177.121094 C 289.949219 177.121094 290.398438 176.671875 290.398438 176.121094 C 290.398438 175.566406 289.949219 175.121094 289.398438 175.121094 Z M 348.84375 206.074219 C 348.84375 205.523438 348.394531 205.074219 347.84375 205.074219 L 341.175781 205.074219 C 340.625 205.074219 340.175781 205.523438 340.175781 206.074219 C 340.175781 206.628906 340.625 207.074219 341.175781 207.074219 L 347.84375 207.074219 C 348.394531 207.074219 348.84375 206.628906 348.84375 206.074219 Z M 349.664062 199.542969 C 349.664062 198.988281 349.214844 198.542969 348.664062 198.542969 L 341.996094 198.542969 C 341.445312 198.542969 340.996094 198.988281 340.996094 199.542969 C 340.996094 200.09375 341.445312 200.542969 341.996094 200.542969 L 348.664062 200.542969 C 349.214844 200.542969 349.664062 200.09375 349.664062 199.542969 Z M 350.484375 193.007812 C 350.484375 192.457031 350.035156 192.007812 349.484375 192.007812 L 342.816406 192.007812 C 342.265625 192.007812 341.816406 192.457031 341.816406 193.007812 C 341.816406 193.5625 342.265625 194.007812 342.816406 194.007812 L 349.484375 194.007812 C 350.035156 194.007812 350.484375 193.5625 350.484375 193.007812 Z M 351.304688 186.476562 C 351.304688 185.921875 350.859375 185.476562 350.304688 185.476562 L 343.640625 185.476562 C 343.085938 185.476562 342.640625 185.921875 342.640625 186.476562 C 342.640625 187.027344 343.085938 187.476562 343.640625 187.476562 L 350.304688 187.476562 C 350.859375 187.476562 351.304688 187.027344 351.304688 186.476562 Z M 352.949219 173.410156 C 352.949219 172.855469 352.5 172.410156 351.949219 172.410156 L 345.28125 172.410156 C 344.730469 172.410156 344.28125 172.855469 344.28125 173.410156 C 344.28125 173.960938 344.730469 174.410156 345.28125 174.410156 L 351.949219 174.410156 C 352.5 174.410156 352.949219 173.960938 352.949219 173.410156 Z M 353.769531 166.875 C 353.769531 166.324219 353.320312 165.875 352.769531 165.875 L 346.101562 165.875 C 345.550781 165.875 345.101562 166.324219 345.101562 166.875 C 345.101562 167.425781 345.550781 167.875 346.101562 167.875 L 352.769531 167.875 C 353.320312 167.875 353.769531 167.425781 353.769531 166.875 Z M 354.589844 160.34375 C 354.589844 159.789062 354.144531 159.34375 353.589844 159.34375 L 346.925781 159.34375 C 346.371094 159.34375 345.925781 159.789062 345.925781 160.34375 C 345.925781 160.894531 346.371094 161.34375 346.925781 161.34375 L 353.589844 161.34375 C 354.144531 161.34375 354.589844 160.894531 354.589844 160.34375 Z M 355.410156 153.808594 C 355.410156 153.257812 354.964844 152.808594 354.410156 152.808594 L 347.746094 152.808594 C 347.191406 152.808594 346.746094 153.257812 346.746094 153.808594 C 346.746094 154.359375 347.191406 154.808594 347.746094 154.808594 L 354.410156 154.808594 C 354.964844 154.808594 355.410156 154.359375 355.410156 153.808594 Z M 356.230469 147.273438 C 356.230469 146.722656 355.785156 146.273438 355.230469 146.273438 L 348.566406 146.273438 C 348.015625 146.273438 347.566406 146.722656 347.566406 147.273438 C 347.566406 147.828125 348.015625 148.273438 348.566406 148.273438 L 355.230469 148.273438 C 355.785156 148.273438 356.230469 147.828125 356.230469 147.273438 Z M 203.011719 151.964844 L 207.714844 151.730469 C 207.945312 148.988281 208.738281 146.460938 210.035156 145.820312 C 208.652344 145.675781 207.308594 145.714844 206.285156 146.164062 C 206.21875 142.695312 204.847656 140.847656 203.988281 138.667969 C 203.972656 141.160156 204.652344 140.394531 204.390625 143.734375 C 204.246094 145.585938 204.621094 147.484375 204.1875 149.289062 C 203.960938 150.246094 203.515625 151.117188 203.011719 151.964844 Z M 208.71875 151.679688 L 212.636719 151.484375 C 212.339844 148.492188 211.382812 146.664062 210.6875 146.664062 C 209.976562 146.664062 208.992188 148.574219 208.71875 151.679688 Z M 212.710938 152.480469 L 208.652344 152.683594 C 208.644531 152.917969 208.640625 153.15625 208.640625 153.402344 C 208.640625 157.515625 209.851562 160.140625 210.6875 160.140625 C 211.519531 160.140625 212.734375 157.515625 212.734375 153.402344 C 212.734375 153.085938 212.722656 152.78125 212.710938 152.480469 Z M 118.417969 192.675781 C 117.332031 185.527344 119.417969 177.957031 124.015625 172.378906 C 125.699219 170.332031 127.78125 168.390625 128.300781 165.792969 C 128.832031 163.113281 127.5625 160.449219 126.980469 157.78125 C 125.875 152.6875 127.449219 147.085938 131.050781 143.316406 C 133.8125 140.425781 137.636719 138.589844 139.96875 135.339844 C 141.925781 132.617188 142.613281 129.21875 143.953125 126.148438 C 147.714844 117.539062 157.226562 111.808594 166.59375 112.503906 C 169.199219 109.261719 174.238281 107.742188 178.332031 108.464844 C 182.425781 109.1875 186.066406 111.511719 189.25 114.183594 C 199.269531 112.648438 211.863281 122.207031 215.363281 147.007812 C 214.421875 146.726562 213.109375 146.351562 211.726562 146.078125 C 213.035156 147.191406 213.734375 150.375 213.734375 153.402344 C 213.734375 157.152344 212.664062 161.140625 210.6875 161.140625 C 208.707031 161.140625 207.640625 157.152344 207.640625 153.402344 C 207.640625 153.179688 207.644531 152.957031 207.652344 152.734375 L 205.386719 152.847656 C 205.820312 153.078125 206.144531 153.933594 206.144531 154.960938 C 206.144531 156.164062 205.699219 157.140625 205.152344 157.140625 C 204.601562 157.140625 204.160156 156.164062 204.160156 154.960938 C 204.160156 153.964844 204.464844 153.132812 204.878906 152.871094 L 202.371094 152.996094 C 201.777344 153.929688 201.175781 154.863281 200.769531 155.886719 C 198.914062 160.578125 201.542969 165.898438 200.804688 170.894531 C 200.339844 174.027344 198.585938 176.808594 197.636719 179.832031 C 196.292969 184.121094 197.238281 190.054688 199.210938 194.09375 L 185.335938 194.09375 C 184.46875 190.824219 183.351562 187.859375 183.226562 184.480469 C 182.304688 188.015625 181.898438 191.238281 181.589844 194.882812 C 179.882812 190.273438 178.753906 185.789062 178.640625 180.878906 C 178.152344 184.808594 177.984375 188.742188 177.496094 192.675781 Z M 212.191406 327.632812 C 213.726562 329.5625 215.410156 331.386719 217.253906 333.046875 C 219.085938 334.710938 221.121094 336.1875 223.367188 337.320312 C 224.496094 337.863281 225.6875 338.300781 226.914062 338.609375 C 228.167969 338.882812 229.375 339.015625 230.589844 339.1875 C 233.027344 339.496094 235.464844 339.800781 237.90625 340.019531 C 242.792969 340.484375 247.691406 340.789062 252.601562 340.878906 C 252.722656 340.878906 252.828125 340.785156 252.832031 340.664062 C 252.839844 340.539062 252.742188 340.433594 252.617188 340.425781 C 250.175781 340.289062 247.734375 340.089844 245.300781 339.867188 C 242.863281 339.65625 240.429688 339.417969 238 339.140625 C 235.570312 338.851562 233.140625 338.574219 230.71875 338.238281 C 229.511719 338.0625 228.28125 337.914062 227.144531 337.65625 C 225.996094 337.359375 224.878906 336.941406 223.804688 336.421875 C 219.496094 334.289062 215.957031 330.800781 212.84375 327.097656 C 211.28125 325.234375 209.832031 323.269531 208.472656 321.246094 C 207.097656 319.230469 205.800781 317.152344 204.640625 315.011719 L 204.636719 315.003906 C 204.585938 314.914062 204.476562 314.878906 204.382812 314.925781 C 204.289062 314.972656 204.25 315.085938 204.296875 315.179688 C 206.484375 319.589844 209.113281 323.773438 212.191406 327.632812 Z M 178.722656 267.1875 C 178.167969 266.855469 177.65625 266.46875 177.164062 266.050781 C 176.675781 265.625 176.226562 265.144531 175.777344 264.640625 C 175.722656 264.582031 175.636719 264.558594 175.558594 264.589844 C 175.460938 264.628906 175.410156 264.742188 175.449219 264.839844 C 175.96875 266.152344 176.984375 267.273438 178.191406 268.035156 C 178.800781 268.414062 179.445312 268.722656 180.117188 268.933594 C 180.683594 269.113281 181.257812 269.234375 181.839844 269.308594 C 183.765625 273.695312 185.765625 278.050781 187.777344 282.398438 C 190.074219 287.234375 192.386719 292.0625 194.761719 296.859375 C 197.140625 301.65625 199.566406 306.425781 202.105469 311.144531 C 202.160156 311.253906 202.296875 311.296875 202.402344 311.242188 C 202.515625 311.1875 202.5625 311.050781 202.507812 310.9375 C 201.324219 308.539062 200.171875 306.125 199.023438 303.710938 L 195.558594 296.472656 L 188.679688 281.972656 C 186.382812 277.144531 184.140625 272.285156 181.925781 267.421875 C 180.816406 264.988281 179.734375 262.542969 178.683594 260.089844 C 177.644531 257.632812 176.574219 255.171875 175.796875 252.632812 L 175.792969 252.621094 C 175.765625 252.523438 175.660156 252.46875 175.558594 252.496094 C 175.457031 252.523438 175.398438 252.628906 175.429688 252.730469 C 176.910156 257.914062 179.054688 262.835938 181.152344 267.761719 C 181.273438 268.035156 181.398438 268.308594 181.519531 268.582031 C 181.15625 268.425781 180.789062 268.273438 180.441406 268.109375 C 179.847656 267.824219 179.265625 267.53125 178.722656 267.1875 Z M 204.96875 172.234375 C 205.347656 172.476562 205.773438 172.628906 206.207031 172.734375 C 206.644531 172.820312 207.085938 172.863281 207.523438 172.820312 C 207.742188 172.804688 207.953125 172.761719 208.167969 172.730469 C 208.378906 172.667969 208.585938 172.613281 208.785156 172.53125 C 208.847656 172.503906 208.894531 172.445312 208.90625 172.378906 C 208.921875 172.269531 208.847656 172.167969 208.738281 172.152344 C 207.914062 172.023438 207.160156 171.9375 206.429688 171.761719 C 206.066406 171.675781 205.714844 171.5625 205.359375 171.441406 C 205.011719 171.320312 204.65625 171.152344 204.328125 170.992188 L 204.285156 170.96875 C 204.21875 170.9375 204.140625 170.9375 204.070312 170.980469 C 203.960938 171.042969 203.925781 171.183594 203.988281 171.289062 C 204.238281 171.714844 204.585938 171.992188 204.96875 172.234375 Z M 411.878906 341.976562 L 394.5625 315.941406 L 394.5625 315.714844 L 382.039062 315.574219 L 369.515625 315.53125 L 344.464844 315.441406 L 319.414062 315.550781 L 306.890625 315.605469 L 294.363281 315.75 L 294.363281 316.132812 L 294.65625 316.136719 L 295.644531 316.796875 L 298.960938 322.5 L 293.121094 321.667969 C 293.15625 321.652344 293.195312 321.640625 293.230469 321.621094 C 293.457031 321.507812 293.648438 321.335938 293.820312 321.152344 C 293.980469 320.957031 294.125 320.746094 294.210938 320.507812 C 294.296875 320.269531 294.355469 320.019531 294.328125 319.753906 C 294.320312 319.707031 294.300781 319.65625 294.269531 319.617188 C 294.179688 319.511719 294.019531 319.5 293.914062 319.589844 L 293.902344 319.597656 C 293.71875 319.753906 293.585938 319.910156 293.445312 320.058594 C 293.304688 320.203125 293.1875 320.355469 293.0625 320.503906 C 292.941406 320.65625 292.8125 320.800781 292.695312 320.96875 C 292.570312 321.132812 292.441406 321.296875 292.316406 321.503906 L 292.308594 321.511719 C 292.308594 321.519531 292.308594 321.523438 292.304688 321.53125 L 292.246094 321.441406 L 286.488281 320.222656 C 286.523438 320.082031 286.5625 319.945312 286.589844 319.808594 C 286.691406 319.328125 286.71875 318.839844 286.722656 318.351562 C 286.710938 317.859375 286.671875 317.371094 286.5625 316.894531 C 286.460938 316.417969 286.320312 315.945312 286.09375 315.507812 C 286.054688 315.433594 285.976562 315.382812 285.890625 315.382812 C 285.761719 315.378906 285.652344 315.484375 285.652344 315.613281 C 285.644531 316.089844 285.671875 316.546875 285.683594 317.003906 L 285.722656 318.367188 L 285.75 319.730469 C 285.753906 320.023438 285.761719 320.324219 285.765625 320.621094 L 282.894531 320.210938 C 272.902344 318.714844 262.902344 317.195312 253 315.242188 C 250.53125 314.75 248.050781 314.25 245.664062 313.546875 C 245.078125 313.363281 244.476562 313.167969 243.976562 312.910156 C 243.707031 312.761719 243.660156 312.730469 243.460938 312.410156 L 242.953125 311.644531 C 242.289062 310.574219 241.628906 309.5 240.984375 308.414062 C 238.398438 304.078125 235.867188 299.699219 233.339844 295.324219 L 224.394531 279.789062 L 331.222656 279.789062 L 337.105469 302.289062 L 379.492188 302.289062 L 373.613281 279.789062 L 437.980469 279.789062 C 444.261719 279.789062 449.535156 275.066406 450.226562 268.828125 L 465.714844 129.121094 C 466.523438 121.824219 460.8125 115.441406 453.46875 115.441406 L 236.574219 115.441406 C 230.292969 115.441406 225.019531 120.164062 224.328125 126.40625 L 210.761719 248.78125 C 212.042969 252.527344 213.097656 256.179688 213.777344 259.535156 L 228.484375 126.867188 C 228.941406 122.738281 232.417969 119.625 236.574219 119.625 L 453.46875 119.625 C 455.8125 119.625 457.96875 120.589844 459.53125 122.335938 C 461.097656 124.082031 461.816406 126.328125 461.558594 128.660156 L 446.070312 268.367188 C 445.613281 272.492188 442.132812 275.605469 437.980469 275.605469 L 339.996094 275.605469 C 340.097656 275.453125 340.167969 275.277344 340.167969 275.082031 C 340.167969 274.527344 339.722656 274.082031 339.167969 274.082031 L 332.503906 274.082031 C 331.949219 274.082031 331.503906 274.527344 331.503906 275.082031 C 331.503906 275.277344 331.574219 275.453125 331.675781 275.605469 L 221.984375 275.605469 L 218.199219 269.039062 C 218.148438 268.953125 218.035156 268.917969 217.941406 268.96875 C 217.851562 269.019531 217.816406 269.136719 217.867188 269.230469 L 221.394531 275.605469 L 221.28125 275.605469 C 222.003906 277.027344 222.722656 278.421875 223.433594 279.789062 L 223.703125 279.789062 L 225.203125 282.503906 L 232.660156 295.714844 C 235.160156 300.109375 237.65625 304.503906 240.21875 308.867188 C 240.855469 309.960938 241.511719 311.046875 242.175781 312.132812 L 242.707031 312.945312 C 242.820312 313.09375 242.828125 313.1875 243.042969 313.386719 C 243.222656 313.566406 243.375 313.636719 243.535156 313.730469 C 244.160156 314.054688 244.769531 314.25 245.386719 314.449219 C 247.84375 315.191406 250.324219 315.707031 252.808594 316.21875 C 262.757812 318.132812 272.769531 319.585938 282.777344 321.027344 L 297.808594 323.089844 L 312.863281 324.9375 C 312.984375 324.949219 313.101562 324.863281 313.113281 324.742188 C 313.132812 324.617188 313.042969 324.503906 312.921875 324.488281 L 307.359375 323.695312 L 312.277344 316.300781 L 319.414062 316.332031 L 344.464844 316.4375 L 369.515625 316.351562 L 382.039062 316.308594 L 388.09375 316.238281 L 405.210938 341.976562 L 398.871094 341.976562 L 389.785156 331.695312 L 385.59375 334.449219 L 393.355469 341.976562 L 368.195312 341.976562 L 391.074219 327.457031 L 358.839844 327.457031 L 363.6875 336.363281 C 364.058594 337.046875 363.777344 337.902344 363.070312 338.226562 C 361.761719 338.132812 360.28125 337.515625 359.023438 336.644531 C 359.023438 336.613281 359.035156 336.589844 359.023438 336.5625 C 358.484375 335.292969 358.472656 333.890625 358.300781 332.449219 C 358.222656 331.722656 358.066406 330.980469 357.78125 330.261719 C 357.496094 329.542969 357.089844 328.890625 356.617188 328.300781 C 355.644531 327.148438 354.472656 326.238281 353.289062 325.433594 C 352.105469 324.621094 350.921875 323.859375 349.859375 322.929688 C 349.792969 322.867188 349.6875 322.863281 349.613281 322.925781 C 349.53125 322.992188 349.519531 323.109375 349.585938 323.191406 C 350.507812 324.335938 351.675781 325.230469 352.789062 326.113281 C 353.902344 326.992188 355.007812 327.855469 355.84375 328.929688 C 356.269531 329.453125 356.640625 330.015625 356.894531 330.621094 C 357.160156 331.226562 357.285156 331.894531 357.425781 332.578125 C 357.632812 333.691406 357.761719 334.921875 358.246094 336.042969 C 357.632812 335.515625 357.101562 334.9375 356.738281 334.332031 L 353.550781 329.003906 L 347.886719 327.636719 C 347.875 327.621094 347.867188 327.605469 347.855469 327.59375 C 347.804688 327.535156 347.722656 327.503906 347.644531 327.53125 C 347.625 327.539062 347.617188 327.558594 347.601562 327.566406 L 347.527344 327.550781 L 339.558594 333.714844 C 339.566406 333.667969 339.574219 333.625 339.578125 333.582031 C 339.625 333.164062 339.597656 332.746094 339.535156 332.332031 C 339.464844 331.917969 339.355469 331.511719 339.183594 331.128906 C 339.011719 330.75 338.804688 330.382812 338.519531 330.070312 C 338.464844 330.015625 338.382812 329.984375 338.304688 330 C 338.175781 330.019531 338.089844 330.144531 338.113281 330.273438 C 338.175781 330.667969 338.269531 331.035156 338.339844 331.402344 C 338.40625 331.773438 338.492188 332.132812 338.550781 332.5 C 338.625 332.863281 338.671875 333.230469 338.734375 333.601562 C 338.769531 333.820312 338.804688 334.046875 338.839844 334.273438 L 332.507812 339.171875 C 330.707031 340.5625 328.625 341.5 326.429688 341.976562 L 320.277344 341.976562 L 312.480469 340.898438 C 312.957031 340.472656 313.386719 339.976562 313.6875 339.390625 C 314.074219 338.675781 314.257812 337.832031 314.136719 337.042969 C 314.121094 336.949219 314.042969 336.867188 313.941406 336.851562 C 313.816406 336.835938 313.703125 336.921875 313.683594 337.046875 C 313.578125 337.75 313.328125 338.386719 312.945312 338.945312 C 312.78125 339.175781 312.589844 339.390625 312.394531 339.601562 C 312.382812 339.140625 312.324219 338.6875 312.214844 338.242188 C 312.007812 337.382812 311.648438 336.5625 311.109375 335.882812 C 311.058594 335.816406 310.96875 335.789062 310.890625 335.820312 C 310.789062 335.859375 310.742188 335.96875 310.777344 336.070312 C 311.066406 336.839844 311.277344 337.609375 311.367188 338.394531 C 311.457031 339.179688 311.453125 339.964844 311.332031 340.730469 C 311.328125 340.757812 311.335938 340.78125 311.335938 340.808594 L 257.621094 340.421875 L 255.269531 341.976562 L 206.0625 341.976562 C 206.1875 342.3125 206.3125 342.644531 206.4375 342.976562 L 465.792969 342.976562 L 465.792969 341.976562 Z M 57.703125 341.976562 L 57.703125 342.976562 L 169.523438 342.976562 C 176.300781 342.976562 178.25 341.976562 178.25 341.976562 C 179.132812 341.738281 179.976562 341.417969 180.777344 341.027344 C 186.515625 338.21875 189.972656 331.683594 188.335938 324.949219 L 169.199219 246.21875 C 167.652344 239.859375 161.960938 235.386719 155.421875 235.386719 L 48.511719 235.386719 C 39.328125 235.386719 32.566406 243.988281 34.734375 252.914062 L 53.871094 331.644531 C 55.113281 336.757812 59.042969 340.644531 63.933594 341.976562 Z M 212.945312 357.589844 C 212.945312 357.589844 212.921875 357.773438 212.867188 358.089844 L 212.871094 358.089844 C 212.171875 362.265625 205.804688 392.21875 166.292969 392.21875 C 151.828125 392.21875 141.371094 389.828125 135.550781 388.027344 C 137.617188 399.855469 147.929688 408.847656 160.347656 408.847656 L 236.355469 408.847656 C 255.175781 408.847656 273.539062 401.007812 273.539062 401.007812 L 267.636719 435.988281 L 306.386719 435.988281 C 306.386719 435.988281 310.871094 401.007812 312.804688 377.539062 C 313.9375 363.796875 303.816406 359.386719 295.230469 358.089844 L 364.945312 358.089844 L 360.417969 397.0625 L 374.746094 399.4375 L 379.550781 358.089844 L 431.144531 358.089844 L 437.144531 409.777344 L 452.035156 412.242188 L 445.75 358.089844 L 465.792969 358.089844 L 465.792969 357.089844 L 212.6875 357.089844 C 212.851562 357.410156 212.945312 357.589844 212.945312 357.589844 Z M 126.378906 357.089844 L 57.703125 357.089844 L 57.703125 358.089844 L 90.742188 358.089844 C 90.710938 358.238281 90.726562 358.394531 90.683594 358.542969 L 90.550781 359.550781 C 90.449219 360.222656 90.414062 360.902344 90.347656 361.578125 L 90.234375 363.613281 L 90.179688 364.628906 L 90.152344 365.140625 C 90.164062 365.3125 90.039062 365.46875 90.363281 365.675781 C 90.730469 365.546875 90.640625 365.367188 90.695312 365.203125 L 90.785156 364.699219 L 90.964844 363.695312 L 91.324219 361.691406 C 91.410156 361.015625 91.53125 360.347656 91.589844 359.671875 L 91.691406 358.660156 C 91.679688 358.46875 91.761719 358.285156 91.726562 358.089844 L 126.394531 358.089844 C 126.386719 357.757812 126.382812 357.425781 126.378906 357.089844 Z M 296.257812 139.984375 C 296.257812 139.433594 295.808594 138.984375 295.257812 138.984375 L 280.367188 138.984375 C 279.816406 138.984375 279.367188 139.433594 279.367188 139.984375 C 279.367188 140.539062 279.816406 140.984375 280.367188 140.984375 L 295.257812 140.984375 C 295.808594 140.984375 296.257812 140.539062 296.257812 139.984375 Z M 256.742188 139.988281 C 256.640625 140.804688 257.21875 141.464844 258.035156 141.464844 C 258.851562 141.464844 259.597656 140.804688 259.699219 139.988281 C 259.804688 139.171875 259.226562 138.507812 258.40625 138.507812 C 257.59375 138.507812 256.847656 139.171875 256.742188 139.988281 Z M 252.4375 141.464844 C 251.621094 141.464844 251.039062 140.804688 251.144531 139.988281 C 251.246094 139.171875 251.992188 138.507812 252.808594 138.507812 C 253.625 138.507812 254.203125 139.171875 254.101562 139.988281 C 254 140.804688 253.253906 141.464844 252.4375 141.464844" fill="#393a3f"/></g><g clip-path="url(#d)" id="change5_1"><path d="M 392.480469 302.289062 L 384.425781 302.289062 L 378.546875 279.789062 L 373.613281 279.789062 L 379.492188 302.289062 L 295.226562 302.289062 C 290.972656 302.289062 287.523438 305.738281 287.523438 309.996094 L 400.1875 309.996094 C 400.1875 305.738281 396.738281 302.289062 392.480469 302.289062 Z M 119.964844 301.761719 L 103.363281 301.761719 C 102.300781 301.761719 101.402344 302.558594 101.28125 303.613281 L 87.839844 420.082031 C 87.699219 421.324219 88.671875 422.417969 89.921875 422.417969 L 106.527344 422.417969 C 107.589844 422.417969 108.484375 421.621094 108.609375 420.5625 L 122.046875 304.097656 C 122.191406 302.851562 121.21875 301.761719 119.964844 301.761719 Z M 367.441406 342.453125 L 374.179688 342.453125 L 389.519531 332.371094 L 398.433594 342.453125 L 403.410156 342.453125 L 391.074219 327.457031 Z M 460.070312 115.441406 L 453.46875 115.441406 C 460.8125 115.441406 466.523438 121.824219 465.714844 129.121094 L 450.226562 268.828125 C 449.535156 275.066406 444.261719 279.789062 437.980469 279.789062 L 444.582031 279.789062 C 450.859375 279.789062 456.136719 275.066406 456.828125 268.828125 L 472.316406 129.121094 C 473.125 121.824219 467.410156 115.441406 460.070312 115.441406 Z M 296.257812 139.984375 C 296.257812 139.433594 295.808594 138.984375 295.257812 138.984375 L 280.367188 138.984375 C 279.816406 138.984375 279.367188 139.433594 279.367188 139.984375 C 279.367188 140.539062 279.816406 140.984375 280.367188 140.984375 L 295.257812 140.984375 C 295.808594 140.984375 296.257812 140.539062 296.257812 139.984375 Z M 258.40625 138.507812 C 257.59375 138.507812 256.847656 139.171875 256.742188 139.988281 C 256.640625 140.804688 257.21875 141.464844 258.035156 141.464844 C 258.851562 141.464844 259.597656 140.804688 259.699219 139.988281 C 259.804688 139.171875 259.226562 138.507812 258.40625 138.507812 Z M 252.808594 138.507812 C 251.992188 138.507812 251.246094 139.171875 251.144531 139.988281 C 251.039062 140.804688 251.621094 141.464844 252.4375 141.464844 C 253.253906 141.464844 254 140.804688 254.101562 139.988281 C 254.203125 139.171875 253.625 138.507812 252.808594 138.507812 Z M 265.300781 139.988281 C 265.199219 140.804688 264.453125 141.464844 263.636719 141.464844 C 262.820312 141.464844 262.242188 140.804688 262.34375 139.988281 C 262.445312 139.171875 263.191406 138.507812 264.007812 138.507812 C 264.824219 138.507812 265.402344 139.171875 265.300781 139.988281" fill="#777b85"/></g></g></svg>